<svg width="181" height="26" viewBox="0 0 181 26" fill="none" xmlns="http://www.w3.org/2000/svg">
<g clip-path="url(#clip0)">
<path d="M39.8055 21.6959C36.2293 21.7177 32.9931 19.5798 31.6097 16.2819C30.2262 12.9841 30.9682 9.17763 33.4896 6.6411C36.0106 4.10457 39.8128 3.3394 43.1188 4.70294C46.4249 6.06649 48.5822 9.28963 48.5822 12.8658C48.5905 17.725 44.6647 21.6745 39.8055 21.6959ZM39.8055 0.728683C34.8968 0.702983 30.457 3.64052 28.5611 8.16804C26.6646 12.696 27.6863 17.9204 31.148 21.4005C34.6102 24.8807 39.8292 25.9295 44.367 24.0568C48.9047 22.1842 51.865 17.7599 51.865 12.8512C51.865 6.18044 46.4758 0.763596 39.8055 0.728683Z" fill="black"/>
<path d="M84.5865 1.42729C84.4747 1.42826 84.3717 1.48694 84.3147 1.58246L71.8864 18.4813L59.4588 1.58246C59.4006 1.48548 59.2952 1.42632 59.1822 1.42729C59.0018 1.42729 58.8549 1.57179 58.8524 1.75218V24.2662H62.14V10.9702L71.6929 23.8686C71.7406 23.9263 71.8117 23.9597 71.8864 23.9597C71.9617 23.9597 72.0323 23.9263 72.0806 23.8686L81.6329 10.9702V24.2662H84.9206V1.75218C84.9194 1.6649 84.8835 1.58149 84.8212 1.5204C84.7576 1.4593 84.6735 1.42584 84.5865 1.42729Z" fill="black"/>
<path d="M105.02 12.7739H97.3588V4.72451H105.02C107.24 4.72451 109.04 6.52447 109.04 8.74436C109.04 10.9642 107.24 12.7642 105.02 12.7642V12.7739ZM105.02 1.41748H94.0611V24.2564H97.3488V16.0809H105.011C109.057 16.0809 112.337 12.8005 112.337 8.75407C112.337 4.70754 109.057 1.42718 105.011 1.42718" fill="black"/>
<path d="M12.6609 21.6964C8.51788 21.7197 4.91552 18.8592 3.99954 14.8191C3.08356 10.7784 5.09978 6.64407 8.84806 4.87856C12.5959 3.11255 17.0676 4.19048 19.5998 7.46937L21.9613 5.13701C18.7022 1.19961 13.3237 -0.271099 8.51494 1.46097C3.70569 3.19304 0.5 7.75501 0.5 12.8664C0.5 17.9777 3.70569 22.5397 8.51494 24.2717C13.3237 26.0038 18.7022 24.5331 21.9613 20.5957L19.5998 18.2633C17.9487 20.427 15.3826 21.6964 12.6609 21.6964Z" fill="black"/>
<path d="M151.313 10.7616L148.797 10.1894C146.091 9.60754 145.888 7.76489 145.888 7.18789C145.888 5.321 147.376 4.24937 149.971 4.24937C152.638 4.24937 154.586 6.05805 155.183 6.67389L157.496 4.39969C155.323 2.12064 152.865 1.00537 149.971 1.00537C145.563 1.00537 142.6 3.48322 142.6 7.1733C142.6 8.34677 142.6 11.9157 148.525 13.3752L151.279 14.025C153.835 14.7281 155.076 15.9646 155.076 17.7975C155.076 19.9457 153.006 21.444 150.048 21.444C146.882 21.444 144.932 19.2668 144.351 18.5346L142.066 20.7845C143.623 22.5592 146.281 24.6637 150.082 24.6637C154.819 24.6637 158.393 21.7058 158.393 17.7878C158.393 14.2771 155.969 11.843 151.338 10.7519" fill="black"/>
<path d="M173.44 10.7616L170.923 10.1894C168.218 9.60754 168.013 7.76489 168.013 7.18789C168.013 5.321 169.502 4.24937 172.096 4.24937C174.763 4.24937 176.713 6.05805 177.305 6.67389L179.622 4.39969C177.45 2.12064 174.986 1.00537 172.096 1.00537C167.689 1.00537 164.726 3.48322 164.726 7.1733C164.726 8.34677 164.726 11.9157 170.652 13.3752L173.421 14.0104C175.971 14.7135 177.212 15.9501 177.212 17.783C177.212 19.9311 175.146 21.4294 172.189 21.4294C169.022 21.4294 167.068 19.2522 166.491 18.52L164.173 20.7942C165.73 22.569 168.387 24.6734 172.189 24.6734C176.926 24.6734 180.5 21.7155 180.5 17.7975C180.5 14.2868 178.075 11.8527 173.445 10.7616" fill="black"/>
<path d="M121.929 15.1064L125.692 7.92983L129.459 15.1064H121.929ZM125.692 1.22363C125.562 1.2246 125.445 1.30025 125.391 1.4176L113.409 24.2662H117.128L120.193 18.4134H131.185L134.255 24.2662H137.969L125.992 1.4176C125.937 1.30122 125.821 1.22606 125.692 1.22363Z" fill="black"/>
<path d="M34.6218 15.722L36.9445 18.0592L44.9842 9.97591L42.6566 7.63867L34.6218 15.722Z" fill="black"/>
</g>
<defs>
<clipPath id="clip0">
<rect width="180" height="24.7059" fill="white" transform="translate(0.5 0.728516)"/>
</clipPath>
</defs>
</svg>
