<svg width="123" height="30" viewBox="0 0 123 30" fill="none" xmlns="http://www.w3.org/2000/svg">
<path fill-rule="evenodd" clip-rule="evenodd" d="M0.82697 2.03825L0.822527 3.40537L0.941498 3.44909C1.00689 3.47311 4.42412 4.33983 8.53532 5.37514C12.6465 6.41045 16.0275 7.27213 16.0486 7.29C16.0698 7.30787 15.8933 7.42196 15.6566 7.54356C15.4199 7.66516 14.7557 8.01384 14.1807 8.31843C13.6057 8.62301 12.853 9.01478 12.508 9.18899L11.8807 9.50577L6.38208 8.11589C3.35783 7.35143 0.87182 6.73774 0.857549 6.75203C0.843279 6.76638 0.829531 7.38654 0.826918 8.13014L0.822266 9.48222L1.01975 9.53887C1.12837 9.57009 2.79899 9.99376 4.73227 10.4804C6.66555 10.9671 8.24746 11.3805 8.24756 11.3991C8.24772 11.4177 7.5363 11.8057 6.66659 12.2614C5.13847 13.0622 4.73206 13.276 3.72629 13.8087C3.46754 13.9458 2.85596 14.2665 2.36722 14.5216C1.87847 14.7767 1.33746 15.0622 1.16496 15.156L0.851329 15.3265L0.843854 16.8274C0.839568 17.6917 0.856399 18.3283 0.883633 18.3283C0.909612 18.3283 1.37164 18.0948 1.91041 17.8095C2.44913 17.5241 3.73675 16.8474 4.77173 16.3056C5.80672 15.7638 6.88875 15.1965 7.17625 15.0449C7.46374 14.8934 8.00476 14.6091 8.3785 14.4132C8.75225 14.2173 9.2227 13.969 9.42394 13.8615C9.62519 13.7541 10.1662 13.4701 10.6262 13.2305C11.0862 12.9909 11.933 12.547 12.508 12.244C14.1474 11.3802 14.5511 11.168 15.2784 10.7879C15.6522 10.5925 16.2402 10.2834 16.5852 10.101C17.6148 9.55658 18.9119 8.87768 19.3164 8.67141L19.6954 8.47818V6.93948C19.6954 6.09315 19.6832 5.40073 19.6682 5.40073C19.6419 5.40073 12.3231 3.55466 4.65438 1.61369C2.60615 1.09527 0.908044 0.671131 0.88081 0.671131C0.85112 0.671131 0.829584 1.21677 0.82697 2.03825ZM91.7029 2.9353C89.7717 3.14429 88.4455 4.0291 87.7839 5.54998C87.4969 6.2096 87.4308 6.69622 87.4022 8.35574L87.3762 9.86558L86.245 9.87972L85.1139 9.89386L85.0999 11.247L85.086 12.6002H86.2368C86.8698 12.6002 87.3877 12.618 87.3878 12.6397C87.3879 12.6613 87.3938 15.4104 87.4009 18.7487L87.4138 24.8184L88.8216 24.8324C89.913 24.8432 90.2387 24.8315 90.271 24.7799C90.294 24.7432 90.3132 22.0174 90.3136 18.7224C90.3141 15.4275 90.3146 12.7021 90.3147 12.6659C90.3149 12.6141 91.0347 12.6002 93.7388 12.6002H97.1626V18.7233V24.8463L98.587 24.8324L100.011 24.8184V17.3561V9.89386L95.1632 9.88046L90.3149 9.86705L90.3156 8.69805C90.3162 7.46699 90.3502 7.21128 90.5706 6.77784C90.8662 6.19641 91.4396 5.82782 92.2221 5.71615C92.5761 5.66564 92.8774 5.66475 93.5882 5.71205C94.0897 5.74542 94.5228 5.75855 94.5506 5.74127C94.581 5.7224 94.6012 5.19636 94.6012 4.42433C94.6012 3.14072 94.6011 3.13872 94.4836 3.08985C94.1489 2.95064 92.4391 2.85563 91.7029 2.9353ZM97.9904 3.08423C97.6043 3.20835 97.3817 3.35035 97.112 3.64453C96.2019 4.63717 96.4802 6.23199 97.6692 6.83769C98.6855 7.35543 99.9328 6.9315 100.432 5.89881C100.569 5.61393 100.584 5.53322 100.585 5.03288C100.586 4.54662 100.57 4.44651 100.45 4.18964C100.012 3.24892 98.9549 2.77412 97.9904 3.08423ZM104.411 6.0664C104.392 6.08563 104.376 6.94831 104.376 7.98336V9.86532L103.37 9.87956L102.364 9.89386L102.35 11.247L102.336 12.6002H103.356H104.376L104.38 16.6861C104.382 18.9333 104.391 20.8074 104.399 20.8508C104.407 20.8941 104.43 21.083 104.451 21.2705C104.472 21.4581 104.555 21.8194 104.636 22.0735C105.086 23.4779 106.15 24.393 107.809 24.8003C108.18 24.8915 108.439 24.9146 109.133 24.9186L109.995 24.9235V23.5572V22.1908L109.499 22.1576C108.254 22.0743 107.674 21.6533 107.373 20.6143C107.291 20.3297 107.28 19.9238 107.264 16.4496L107.245 12.6002H108.765H110.285L110.271 11.247L110.257 9.89386L108.754 9.87993L107.251 9.86595V7.94868V6.03135H105.848C105.077 6.03135 104.43 6.04711 104.411 6.0664ZM47.086 9.7867C44.5224 10.2107 42.7217 12.0301 42.1742 14.7494C41.9979 15.6249 41.9478 16.3659 41.9774 17.6634C41.9979 18.5657 42.0336 19.043 42.1156 19.5107C42.4059 21.1678 42.9208 22.3061 43.8042 23.2444C44.8921 24.3999 46.427 24.9906 48.4127 25.0182C49.7337 25.0366 50.7361 24.8294 51.8166 24.3146C52.7137 23.8872 54.0439 22.8385 54.0341 22.5664C54.0313 22.4894 53.7529 22.2042 53.1585 21.6692C52.6792 21.2378 52.261 20.8764 52.2292 20.866C52.1974 20.8556 51.9857 21.003 51.7588 21.1935C51.0545 21.7847 50.4857 22.0756 49.7051 22.2437C49.2314 22.3457 47.9064 22.3189 47.478 22.1985C45.9553 21.7708 45.1208 20.6013 44.9697 18.683L44.9334 18.2232H49.6395C52.2618 18.2232 54.3581 18.2029 54.3738 18.1774C54.3893 18.1522 54.4044 17.4604 54.4074 16.6403C54.4114 15.5212 54.3925 15.0238 54.3316 14.6475C53.9216 12.1127 52.3086 10.3998 49.8302 9.86753C49.1486 9.72112 47.7343 9.6795 47.086 9.7867ZM62.1362 9.78781C61.9183 9.8247 61.6069 9.8938 61.4442 9.94131C61.0152 10.0667 60.2765 10.461 59.906 10.7625C59.7294 10.9061 59.5725 11.0237 59.5575 11.0237C59.5425 11.0237 59.5236 10.7695 59.5154 10.4588L59.5006 9.89386L58.1355 9.87988C57.0292 9.86853 56.7592 9.87956 56.711 9.938C56.6668 9.99144 56.6548 11.9339 56.6646 17.4143L56.6779 24.8184L58.1023 24.8324L59.5267 24.8463L59.5306 19.8663C59.5327 17.1273 59.5447 14.8271 59.5573 14.7548C59.7137 13.8562 60.551 13.0368 61.5745 12.781C62.046 12.663 63.2175 12.6363 63.7085 12.7324C64.7305 12.932 65.5183 13.6077 65.875 14.5905C65.9796 14.8789 65.9829 15.0088 66.0084 19.8523L66.0346 24.8184L67.4595 24.8324L68.8844 24.8463L68.8805 19.7612C68.8782 16.8234 68.8556 14.5428 68.8269 14.3607C68.7006 13.5599 68.3591 12.6444 67.9604 12.0384C67.6914 11.6293 67.048 10.9571 66.6618 10.6817C66.0153 10.2207 65.2445 9.91714 64.388 9.78639C63.7893 9.69495 62.6802 9.69569 62.1362 9.78781ZM76.4367 9.76763C73.8869 10.1478 72.0506 11.899 71.4554 14.5184C71.2579 15.3878 71.2103 15.9379 71.2125 17.3298C71.2142 18.3506 71.2371 18.8139 71.3086 19.2742C71.7019 21.8074 72.7184 23.4281 74.4715 24.3168C75.523 24.8498 77.1678 25.1285 78.5129 25.0015C80.2097 24.8412 81.7103 24.1675 82.8759 23.0425C83.1149 22.8118 83.3105 22.5965 83.3105 22.5641C83.3105 22.4953 81.5088 20.8508 81.4334 20.8508C81.4054 20.8508 81.2459 20.9716 81.0789 21.1193C80.4702 21.6577 79.8662 22.0033 79.2052 22.1917C78.7482 22.3219 77.3929 22.3483 76.9072 22.2364C76.1193 22.0551 75.4666 21.6749 75.0494 21.1542C74.6292 20.6299 74.2998 19.7577 74.2363 19.0014C74.2209 18.8191 74.1998 18.6024 74.1893 18.52C74.1489 18.2017 73.8054 18.2232 78.9252 18.2232H83.6241L83.6288 17.9736C83.6776 15.3964 83.6568 14.9409 83.4501 14.0669C83.0247 12.2689 81.7865 10.8314 80.0998 10.1775C79.2999 9.86737 78.6824 9.75575 77.6651 9.73736C77.162 9.72827 76.6092 9.74188 76.4367 9.76763ZM116.055 9.76384C115.193 9.88004 114.305 10.1744 113.667 10.5551C113.196 10.8367 112.513 11.5202 112.254 11.9696C111.859 12.656 111.66 13.5548 111.714 14.4133C111.78 15.4769 112.07 16.2075 112.689 16.8739C113.506 17.7536 114.513 18.2006 116.551 18.5879C116.999 18.6731 117.483 18.7581 117.627 18.7768C118.505 18.8911 119.301 19.1694 119.663 19.4891C120.234 19.9929 120.216 20.9676 119.624 21.5759C119.333 21.8748 119.07 22.0242 118.481 22.2239C118.046 22.3717 117.911 22.3923 117.235 22.4137C116.616 22.4335 116.386 22.4189 115.98 22.3342C115.115 22.154 114.292 21.734 113.731 21.187C113.6 21.0597 113.444 20.9559 113.382 20.9559C113.238 20.9559 111.57 22.4678 111.548 22.6179C111.537 22.6934 111.641 22.828 111.898 23.0722C114.028 25.0919 117.877 25.6346 120.528 24.289C121.673 23.7082 122.436 22.8167 122.784 21.6562C122.934 21.1541 122.974 19.9794 122.86 19.4319C122.692 18.6241 122.181 17.8443 121.503 17.3613C120.617 16.7293 119.488 16.3476 117.288 15.9355C115.074 15.5211 114.563 15.1977 114.563 14.2119C114.563 13.3423 115.022 12.8467 116.085 12.5682C116.518 12.4547 117.58 12.454 118.1 12.5669C118.877 12.7357 119.517 13.0415 120.002 13.4757C120.136 13.5959 120.285 13.7023 120.332 13.7122C120.429 13.7322 122.253 12.1092 122.253 12.0027C122.253 11.8837 121.709 11.3226 121.286 11.0058C120.462 10.3878 119.325 9.93674 118.233 9.7939C117.617 9.71319 116.541 9.69837 116.055 9.76384ZM28.8781 9.90237C28.8588 9.92176 28.843 10.5367 28.843 11.269V12.6002H32.293C34.1904 12.6002 35.7429 12.6147 35.7429 12.6325C35.7429 12.6503 35.6055 12.8927 35.4375 13.1712C34.7862 14.2513 33.3212 16.676 32.6233 17.8291C32.2209 18.4939 31.285 20.0428 30.5435 21.2712C29.8019 22.4996 29.0336 23.768 28.8362 24.0901C28.6387 24.4121 28.4771 24.7137 28.4771 24.7603C28.4771 24.8379 28.994 24.844 34.5799 24.8317L40.6826 24.8184V23.4783V22.1383L37.0889 22.1248C35.1124 22.1174 33.4952 22.0925 33.4952 22.0696C33.4952 22.0467 33.5165 22.0054 33.5425 21.978C33.5685 21.9505 34.066 21.1359 34.648 20.1676C36.2191 17.554 36.7443 16.6808 38.1729 14.3082C40.5638 10.3372 40.7162 10.0764 40.6986 9.98493C40.6823 9.89927 40.3315 9.89307 34.7972 9.88051C31.5609 9.87315 28.8974 9.88298 28.8781 9.90237ZM17.7613 12.7881C16.7407 13.3242 15.5999 13.924 15.2261 14.1208C14.8524 14.3176 13.6998 14.9219 12.6648 15.4638C11.6298 16.0056 10.3479 16.6791 9.81598 16.9606C9.28412 17.242 8.49612 17.6564 8.06487 17.8813C7.63363 18.1062 7.09261 18.3903 6.86261 18.5126C6.39687 18.7602 6.12035 18.9054 3.20357 20.4336C2.08234 21.021 1.09439 21.5406 1.00815 21.588L0.851329 21.6743L0.839515 23.1824L0.827754 24.6904L0.944059 24.7397C1.05116 24.7851 19.5907 29.4692 19.6633 29.4692C19.6809 29.4692 19.6954 28.8474 19.6954 28.0874V26.7057L18.1926 26.3267C11.1368 24.5472 4.60174 22.893 4.54053 22.8709C4.43594 22.8332 4.50347 22.7921 5.66036 22.1891C6.2066 21.9045 6.95932 21.5096 7.33306 21.3116C7.70681 21.1136 8.15373 20.8794 8.32628 20.7912L8.63997 20.6309L14.0762 22.0049C17.0661 22.7607 19.5536 23.3911 19.6039 23.406C19.6894 23.4311 19.6954 23.3417 19.6954 22.0392V20.6455L19.5255 20.5995C19.4321 20.5742 17.7621 20.1534 15.8144 19.6643C13.8668 19.1752 12.2732 18.7632 12.2732 18.7487C12.2731 18.7224 12.5782 18.5566 13.8932 17.8682C14.2813 17.6651 15.3163 17.1215 16.1932 16.6604C17.07 16.1993 18.1874 15.6136 18.6761 15.3591C19.1648 15.1045 19.5942 14.8733 19.6301 14.8454C19.6796 14.8068 19.6954 14.4341 19.6954 13.3033C19.6954 12.4831 19.6778 11.8122 19.6562 11.8126C19.6346 11.8129 18.7819 12.2519 17.7613 12.7881ZM47.8962 12.5349C47.5396 12.5655 47.0917 12.6698 46.7723 12.7966C45.6829 13.2293 45.1126 14.027 45.0167 15.2523L44.9816 15.7008H48.2553H51.5291L51.5283 15.3723C51.5258 14.3326 50.9371 13.3638 50.0372 12.9184C49.4573 12.6314 48.5873 12.4756 47.8962 12.5349ZM77.1162 12.5364C75.3986 12.7007 74.2674 13.794 74.2674 15.2899V15.7008H77.5083H80.7492L80.7544 15.5562C80.7975 14.3812 80.2145 13.3712 79.2184 12.8952C78.638 12.6178 77.7856 12.4724 77.1162 12.5364Z" fill="#123466"/>
</svg>
