<svg width="30" height="30" viewBox="0 0 30 30" fill="none" xmlns="http://www.w3.org/2000/svg">
<g clip-path="url(#clip0_1044_797)">
<path d="M29.6812 15.3375C29.6812 14.35 29.5937 13.4125 29.4437 12.5H15.3187V18.1375H23.4062C23.0437 19.9875 21.9812 21.55 20.4062 22.6125V26.3625H25.2312C28.0562 23.75 29.6812 19.9 29.6812 15.3375Z" fill="#4285F4"/>
<path d="M15.3187 29.9998C19.3687 29.9998 22.7562 28.6498 25.2312 26.3623L20.4062 22.6123C19.0562 23.5123 17.3437 24.0623 15.3187 24.0623C11.4062 24.0623 8.09366 21.4248 6.90616 17.8623H1.93115V21.7248C4.39365 26.6248 9.45615 29.9998 15.3187 29.9998Z" fill="#34A853"/>
<path d="M6.9061 17.8629C6.5936 16.9629 6.4311 16.0004 6.4311 15.0004C6.4311 14.0004 6.6061 13.0379 6.9061 12.1379V8.27539H1.9311C0.906102 10.3004 0.318604 12.5754 0.318604 15.0004C0.318604 17.4254 0.906102 19.7004 1.9311 21.7254L6.9061 17.8629Z" fill="#FBBC05"/>
<path d="M15.3187 5.9375C17.5312 5.9375 19.5062 6.7 21.0687 8.1875L25.3437 3.9125C22.7562 1.4875 19.3687 0 15.3187 0C9.45615 0 4.39365 3.375 1.93115 8.275L6.90615 12.1375C8.09365 8.575 11.4062 5.9375 15.3187 5.9375Z" fill="#EA4335"/>
</g>
<defs>
<clipPath id="clip0_1044_797">
<rect width="30" height="30" fill="white"/>
</clipPath>
</defs>
</svg>
