<svg fill="none" height="28" viewBox="0 0 60 28" width="60" xmlns="http://www.w3.org/2000/svg"><g fill="#ee4e1d"><path clip-rule="evenodd" d="m2.50731 3.23186v-.07648c0-.15266-.07634-.33073-.25455-.33073-.17808 0-.27995.02551-.48357.27981-.30521.40721-.76337.5345-1.221261.33074-.4580265-.25427-.687178-.73785-.4580265-1.27221.6361025-1.424864 1.7302275-2.16299 3.1044475-2.16299 2.44282 0 3.10444 1.62863 3.1297 3.46075v.07633c0 .46784-.02557 1.13533-.05378 1.8716-.03469.90547-.07337 1.915-.07337 2.78512.83987-.68716 2.13748-1.57767 4.1986-1.57767 3.0536 0 5.0894 2.79895 5.0894 6.61617 0 1.501-.3817 2.7226-.9924 3.664 2.208-.9704 3.7681-3.0284 3.9083-7.01213-.0504-.80431-.0931-1.3596-.0931-1.3596 0-1.04334.8651-1.90844 1.9084-1.90844 1.0432 0 1.9083.8651 1.9083 1.90844 0 1.68713-.0661 3.01013-.131 4.30673-.0622 1.2457-.1233 2.4671-.1233 3.9633 0 .4834.4071.8906.8905.8906 1.5221 0 3.1516-1.8313 3.4021-6.9806-.0115-.5324-.0259-1.04561-.0434-1.54378h-.3054c-.6362 0-1.1451-.50913-1.1451-1.14509 0-.63624.5089-1.14506 1.1451-1.14506h.2036c-.0509-1.04345-.0765-2.01032-.0765-2.92638 0-1.04345.8651-1.90855 1.9085-1.90855s1.9085.8651 1.9085 1.90855c0 .68853-.0194 1.51283-.0412 2.43894l-.0097.41097c.8143-.02541 1.7558-.05092 2.9775-.05092.7123 0 1.272.55987 1.272 1.27245 0 .71247-.5597 1.2722-1.272 1.2722-1.2472 0-2.2142 0-3.0538-.02537-.0763 2.08654-.1273 4.35124-.1273 6.38694 0 1.0941.5598 2.0357 1.7813 2.0357 2.6189 0 4.4583-2.1166 4.684-7.2879-.0355-2.67937-.106-4.48818-.16-5.87544-.0408-1.04687-.0723-1.85369-.0723-2.61341 0-1.043174.8652-1.90845 1.9084-1.90845 1.0439 0 1.9086.865276 1.9086 1.90845 0 .67673-.0249 1.36591-.0591 2.31302-.0752 2.08008-.1953 5.40427-.1953 12.57313 0 .4834.4067.8906.8909.8906 1.4302 0 2.9562-1.6183 3.3422-6.0898-.0182-.2654-.0374-.522-.056-.7705-.056-.7475-.1065-1.42198-.1065-2.04579 0-1.04335.8648-1.90845 1.9084-1.90845 1.0432 0 1.9083.8651 1.9083 1.90845 0 .68444-.0609 1.52119-.1231 2.37609-.065.893-.1314 1.8059-.1314 2.5859 0 1.2723.5089 2.2901 2.0355 2.2901 2.3158 0 3.3081-1.3995 3.3081-2.6718 0-.78-.0663-1.5933-.1312-2.3888-.0621-.7617-.1229-1.50705-.1229-2.19149 0-1.04335.8648-1.90845 1.9083-1.90845 1.0432 0 1.9087.8651 1.9087 1.90845 0 .62381-.0506 1.29829-.1068 2.04579-.0697.9294-.148 1.9719-.148 3.1706v.458c.0254 1.2977.1527 2.4174.3053 3.3845.458-.2545.9164-.7381 1.5016-1.5777.3053-.4326.8142-.5852 1.2976-.3564.5089.28.7634.7635.5089 1.3741-.5598 1.3487-1.6284 2.4429-3.0024 2.9519.0255.1526.0255.3308.0255.5088 0 2.9264-.9669 6.3871-6.3618 6.3871-4.0717 0-5.2167-1.8068-5.2167-3.8424 0-2.6743 2.8057-3.2924 5.9652-3.9884.6585-.1451 1.3324-.2935 1.9995-.4647l-.1272-1.3996c-.6612.8143-2.2903 1.5267-4.4022 1.5267-1.6197 0-2.774-.6085-3.5009-1.5976-1.1966 2.1811-3.0152 3.2518-5.2769 3.2518-1.5786 0-2.8436-1.0409-3.2755-2.4702-1.3268 1.5968-3.1455 2.4702-5.3752 2.4702-2.1081 0-3.5414-.8958-4.1883-2.2052-1.1621 1.4776-2.7255 2.2052-4.59 2.2052-1.9594 0-3.4353-1.6032-3.4353-3.5626 0-.0657.0007-.1314.002-.1973-2.2242 2.5486-5.7421 3.7599-9.82232 3.7599-4.45314 0-5.98003-2.7992-5.98003-4.0714 0-.3817.03181-.827.06363-1.2722.03182-.4454.06364-.8907.06364-1.2725 0-5.16955-.12485-7.71672-.19963-9.24227-.03197-.65213-.05478-1.11757-.05478-1.52137zm3.68959 9.38964-.12711 4.046s.78876 1.0177 2.54469 1.0177c1.67942 0 3.30792-1.2723 3.30792-4.4529 0-2.163-.9669-3.43552-2.41742-3.43552-2.26473 0-3.25712 1.57782-3.30808 2.82472zm45.8873 8.6797c.2178-.0416.443-.0847.6751-.1298 0 .0763.0064.1526.0127.229.0064.0763.0128.1527.0128.229.0508 1.5269-.6365 2.9262-2.9265 2.9262-1.3485 0-1.7814-.6869-1.7814-1.2722 0-1.2163 1.5269-1.5081 4.0073-1.9822z" fill-rule="evenodd"/><path d="m20.3178.763394c1.196 0 2.163.966976 2.163 2.162996 0 1.19597-.967 2.16299-2.163 2.16299s-2.163-.96702-2.163-2.16299c0-1.19602.967-2.162996 2.163-2.162996z"/></g></svg>