<svg width="506" height="60" viewBox="0 0 506 60" fill="none" xmlns="http://www.w3.org/2000/svg">
<rect x="0.5" y="0.5" width="505" height="59" rx="6.5" fill="black"/>
<path d="M291.995 27.8894V31.6128H289.662V34.0546H291.995V42.3514C291.995 45.1844 293.277 46.3176 296.501 46.3176C297.068 46.3176 297.608 46.2502 298.08 46.1692V43.7544C297.675 43.7949 297.419 43.8219 296.973 43.8219C295.53 43.8219 294.896 43.1473 294.896 41.6094V34.0546H298.08V31.6128H294.896V27.8894H291.995Z" fill="white"/>
<path d="M306.293 46.52C310.583 46.52 313.214 43.6465 313.214 38.8843C313.214 34.1491 310.57 31.2621 306.293 31.2621C302.003 31.2621 299.359 34.1491 299.359 38.8843C299.359 43.6465 301.99 46.52 306.293 46.52ZM306.293 43.9433C303.771 43.9433 302.354 42.0951 302.354 38.8843C302.354 35.7005 303.771 33.8388 306.293 33.8388C308.803 33.8388 310.233 35.7005 310.233 38.8843C310.233 42.0816 308.803 43.9433 306.293 43.9433Z" fill="white"/>
<path d="M315.465 46.2367H318.365V37.5622C318.365 35.4981 319.917 34.1086 322.116 34.1086C322.628 34.1086 323.492 34.203 323.735 34.284V31.424C323.424 31.343 322.871 31.3025 322.44 31.3025C320.524 31.3025 318.891 32.3548 318.473 33.7983H318.257V31.5454H315.465V46.2367Z" fill="white"/>
<path d="M330.936 33.7309C333.081 33.7309 334.485 35.2283 334.552 37.5352H327.132C327.294 35.2418 328.791 33.7309 330.936 33.7309ZM334.538 42.2704C333.999 43.4171 332.798 44.0512 331.044 44.0512C328.724 44.0512 327.227 42.4188 327.132 39.8421V39.6802H337.506V38.6684C337.506 34.0546 335.038 31.2621 330.95 31.2621C326.808 31.2621 324.178 34.2435 324.178 38.9383C324.178 43.633 326.754 46.52 330.963 46.52C334.323 46.52 336.67 44.9011 337.331 42.2704H334.538Z" fill="white"/>
<path d="M272.974 40.8114C273.198 44.4189 276.204 46.7261 280.679 46.7261C285.461 46.7261 288.453 44.3071 288.453 40.4479C288.453 37.4136 286.747 35.7357 282.609 34.7709L280.385 34.2256C277.757 33.6103 276.694 32.7854 276.694 31.3452C276.694 29.5274 278.344 28.3389 280.819 28.3389C283.168 28.3389 284.79 29.4994 285.083 31.3591H288.132C287.95 27.9613 284.958 25.5703 280.861 25.5703C276.456 25.5703 273.52 27.9613 273.52 31.5549C273.52 34.5192 275.184 36.281 278.833 37.134L281.434 37.7632C284.105 38.3924 285.279 39.3153 285.279 40.8534C285.279 42.6431 283.433 43.9435 280.917 43.9435C278.218 43.9435 276.344 42.727 276.079 40.8114H272.974Z" fill="white"/>
<path d="M242.928 31.3025C240.932 31.3025 239.205 32.3008 238.315 33.9737H238.099V31.5454H235.306V51.1203H238.207V44.0107H238.436C239.205 45.5622 240.864 46.4795 242.955 46.4795C246.665 46.4795 249.026 43.5521 249.026 38.8843C249.026 34.2165 246.665 31.3025 242.928 31.3025ZM242.105 43.8758C239.677 43.8758 238.153 41.9602 238.153 38.8978C238.153 35.8219 239.677 33.9062 242.119 33.9062C244.574 33.9062 246.045 35.7814 246.045 38.8843C246.045 42.0006 244.574 43.8758 242.105 43.8758Z" fill="white"/>
<path d="M259.175 31.3025C257.179 31.3025 255.452 32.3008 254.562 33.9737H254.346V31.5454H251.553V51.1203H254.454V44.0107H254.683C255.452 45.5622 257.111 46.4795 259.202 46.4795C262.912 46.4795 265.273 43.5521 265.273 38.8843C265.273 34.2165 262.912 31.3025 259.175 31.3025ZM258.352 43.8758C255.924 43.8758 254.4 41.9602 254.4 38.8978C254.4 35.8219 255.924 33.9062 258.366 33.9062C260.821 33.9062 262.292 35.7814 262.292 38.8843C262.292 42.0006 260.821 43.8758 258.352 43.8758Z" fill="white"/>
<path d="M230.102 46.2367H233.43L226.145 26.0597H222.775L215.49 46.2367H218.706L220.566 40.8813H228.256L230.102 46.2367ZM224.299 29.7232H224.537L227.459 38.2526H221.363L224.299 29.7232Z" fill="white"/>
<path d="M215.96 10.7356V19.5722H219.15C221.784 19.5722 223.308 17.9494 223.308 15.1263C223.308 12.3461 221.771 10.7356 219.15 10.7356H215.96ZM217.332 11.9848H218.997C220.828 11.9848 221.912 13.1483 221.912 15.1447C221.912 17.1717 220.847 18.3229 218.997 18.3229H217.332V11.9848Z" fill="white"/>
<path d="M227.978 19.7008C229.926 19.7008 231.12 18.3964 231.12 16.2347C231.12 14.0853 229.92 12.7748 227.978 12.7748C226.031 12.7748 224.831 14.0853 224.831 16.2347C224.831 18.3964 226.025 19.7008 227.978 19.7008ZM227.978 18.5311C226.833 18.5311 226.19 17.6922 226.19 16.2347C226.19 14.7895 226.833 13.9444 227.978 13.9444C229.118 13.9444 229.767 14.7895 229.767 16.2347C229.767 17.6861 229.118 18.5311 227.978 18.5311Z" fill="white"/>
<path d="M241.289 12.9034H239.973L238.785 17.9922H238.68L237.309 12.9034H236.047L234.675 17.9922H234.577L233.383 12.9034H232.048L233.885 19.5722H235.239L236.611 14.6609H236.715L238.093 19.5722H239.458L241.289 12.9034Z" fill="white"/>
<path d="M242.805 19.5722H244.122V15.6713C244.122 14.6303 244.74 13.9812 245.714 13.9812C246.688 13.9812 247.153 14.5139 247.153 15.5856V19.5722H248.47V15.2549C248.47 13.6689 247.649 12.7748 246.161 12.7748C245.157 12.7748 244.496 13.2218 244.171 13.9628H244.073V12.9034H242.805V19.5722Z" fill="white"/>
<path d="M250.543 19.5722H251.86V10.3008H250.543V19.5722Z" fill="white"/>
<path d="M256.812 19.7008C258.759 19.7008 259.953 18.3964 259.953 16.2347C259.953 14.0853 258.753 12.7748 256.812 12.7748C254.864 12.7748 253.664 14.0853 253.664 16.2347C253.664 18.3964 254.858 19.7008 256.812 19.7008ZM256.812 18.5311C255.667 18.5311 255.024 17.6922 255.024 16.2347C255.024 14.7895 255.667 13.9444 256.812 13.9444C257.951 13.9444 258.6 14.7895 258.6 16.2347C258.6 17.6861 257.951 18.5311 256.812 18.5311Z" fill="white"/>
<path d="M263.876 18.574C263.16 18.574 262.639 18.2249 262.639 17.6248C262.639 17.0369 263.055 16.7246 263.974 16.6634L265.603 16.5593V17.1165C265.603 17.9433 264.868 18.574 263.876 18.574ZM263.539 19.6824C264.415 19.6824 265.144 19.3027 265.542 18.6352H265.646V19.5722H266.913V15.0161C266.913 13.6076 265.97 12.7748 264.299 12.7748C262.786 12.7748 261.708 13.5096 261.574 14.6548H262.847C262.994 14.1833 263.503 13.9138 264.237 13.9138C265.138 13.9138 265.603 14.3119 265.603 15.0161V15.5917L263.796 15.6958C262.21 15.7938 261.316 16.4858 261.316 17.6861C261.316 18.9047 262.253 19.6824 263.539 19.6824Z" fill="white"/>
<path d="M271.381 19.6824C272.3 19.6824 273.078 19.2476 273.476 18.5189H273.58V19.5722H274.841V10.3008H273.525V13.9628H273.427C273.065 13.2279 272.294 12.7932 271.381 12.7932C269.697 12.7932 268.613 14.1281 268.613 16.2347C268.613 18.3474 269.685 19.6824 271.381 19.6824ZM271.755 13.975C272.857 13.975 273.549 14.8507 273.549 16.2408C273.549 17.6371 272.863 18.5005 271.755 18.5005C270.64 18.5005 269.973 17.6493 269.973 16.2347C269.973 14.8324 270.647 13.975 271.755 13.975Z" fill="white"/>
<path d="M283.379 19.7008C285.326 19.7008 286.521 18.3964 286.521 16.2347C286.521 14.0853 285.32 12.7748 283.379 12.7748C281.432 12.7748 280.231 14.0853 280.231 16.2347C280.231 18.3964 281.426 19.7008 283.379 19.7008ZM283.379 18.5311C282.234 18.5311 281.591 17.6922 281.591 16.2347C281.591 14.7895 282.234 13.9444 283.379 13.9444C284.518 13.9444 285.167 14.7895 285.167 16.2347C285.167 17.6861 284.518 18.5311 283.379 18.5311Z" fill="white"/>
<path d="M288.263 19.5722H289.58V15.6713C289.58 14.6303 290.199 13.9812 291.172 13.9812C292.146 13.9812 292.611 14.5139 292.611 15.5856V19.5722H293.928V15.2549C293.928 13.6689 293.107 12.7748 291.619 12.7748C290.615 12.7748 289.954 13.2218 289.629 13.9628H289.531V12.9034H288.263V19.5722Z" fill="white"/>
<path d="M299.992 11.2438V12.934H298.932V14.0424H299.992V17.8085C299.992 19.0945 300.573 19.6089 302.037 19.6089C302.294 19.6089 302.539 19.5783 302.753 19.5416V18.4454C302.57 18.4638 302.453 18.476 302.251 18.476C301.596 18.476 301.308 18.1698 301.308 17.4717V14.0424H302.753V12.934H301.308V11.2438H299.992Z" fill="white"/>
<path d="M304.521 19.5722H305.837V15.6775C305.837 14.667 306.438 13.9873 307.515 13.9873C308.446 13.9873 308.942 14.5262 308.942 15.5917V19.5722H310.259V15.2672C310.259 13.6811 309.383 12.7809 307.962 12.7809C306.958 12.7809 306.254 13.2279 305.929 13.975H305.825V10.3008H304.521V19.5722Z" fill="white"/>
<path d="M315.008 13.8954C315.982 13.8954 316.619 14.5752 316.65 15.6223H313.281C313.355 14.5813 314.035 13.8954 315.008 13.8954ZM316.643 17.7718C316.398 18.2923 315.853 18.5801 315.057 18.5801C314.004 18.5801 313.324 17.8392 313.281 16.6695V16.596H317.991V16.1367C317.991 14.0424 316.87 12.7748 315.015 12.7748C313.135 12.7748 311.94 14.1281 311.94 16.2592C311.94 18.3903 313.11 19.7008 315.021 19.7008C316.545 19.7008 317.611 18.9659 317.911 17.7718H316.643Z" fill="white"/>
<path d="M195.216 29.2374C195.255 26.2592 196.854 23.4412 199.391 21.8813C197.791 19.5953 195.109 18.1458 192.32 18.0586C189.345 17.7463 186.461 19.8388 184.945 19.8388C183.399 19.8388 181.065 18.0896 178.552 18.1413C175.275 18.2471 172.221 20.1099 170.627 22.9742C167.201 28.9065 169.756 37.6251 173.039 42.4203C174.681 44.7684 176.6 47.3913 179.111 47.2983C181.569 47.1964 182.487 45.7313 185.453 45.7313C188.392 45.7313 189.253 47.2983 191.815 47.2392C194.452 47.1964 196.113 44.8806 197.698 42.5103C198.878 40.8372 199.786 38.988 200.388 37.0314C197.289 35.7207 195.22 32.6021 195.216 29.2374Z" fill="white"/>
<path d="M190.376 14.905C191.814 13.179 192.523 10.9605 192.351 8.7207C190.154 8.95141 188.125 10.0012 186.668 11.661C185.243 13.2827 184.502 15.4621 184.642 17.6163C186.839 17.6389 189 16.6176 190.376 14.905Z" fill="white"/>
<rect x="0.5" y="0.5" width="505" height="59" rx="6.5" stroke="#A6A6A6"/>
</svg>
