<svg width="24" height="25" viewBox="0 0 24 25" fill="none" xmlns="http://www.w3.org/2000/svg">
<g clip-path="url(#clip0_5291_100570)">
<path d="M5.58334 3.80547C5.58334 5.02286 4.575 5.97939 3.29166 5.97939C2.00833 5.97939 1 5.02286 1 3.80547C1 2.58808 2.00833 1.63156 3.29166 1.63156C4.575 1.63156 5.58334 2.58808 5.58334 3.80547ZM5.58334 7.71852H1V21.6316H5.58334V7.71852ZM12.9166 7.71852H8.33334V21.6316H12.9166V14.3273C12.9166 10.2403 18.4166 9.89243 18.4166 14.3273V21.6316H23V12.849C23 5.97939 14.8416 6.24026 12.9166 9.63156V7.71852Z" fill="black"/>
</g>
<defs>
<clipPath id="clip0_5291_100570">
<rect width="22" height="20" fill="white" transform="translate(1 1.63156)"/>
</clipPath>
</defs>
</svg>
