<svg width="24" height="25" viewBox="0 0 24 25" fill="none" xmlns="http://www.w3.org/2000/svg">
<path d="M7.91881 22.2631C16.2211 22.2631 20.7613 15.4925 20.7613 9.62167C20.7613 9.4293 20.7573 9.23793 20.7482 9.04729C21.6295 8.4202 22.3957 7.63746 23 6.74682C22.1913 7.10053 21.321 7.3387 20.408 7.44609C21.3397 6.89609 22.0555 6.02566 22.3929 4.98824C21.5207 5.49734 20.5549 5.86729 19.5269 6.06679C18.703 5.20326 17.5299 4.66312 16.2321 4.66312C13.7391 4.66312 11.7176 6.65299 11.7176 9.10566C11.7176 9.45442 11.7574 9.79334 11.8345 10.1187C8.08344 9.93325 4.75704 8.16503 2.53108 5.4769C2.143 6.13329 1.91955 6.89634 1.91955 7.70987C1.91955 9.25123 2.7165 10.612 3.92832 11.4083C3.18791 11.3859 2.4923 11.1854 1.88402 10.8524C1.88302 10.8709 1.88302 10.8896 1.88302 10.9091C1.88302 13.061 3.43914 14.8576 5.50419 15.2647C5.1251 15.3664 4.72626 15.4211 4.3144 15.4211C4.02365 15.4211 3.74089 15.3925 3.46591 15.3411C4.04041 17.1061 5.70687 18.3908 7.6826 18.427C6.1375 19.6189 4.19129 20.3289 2.07669 20.3289C1.71262 20.3289 1.35331 20.3085 1 20.2673C2.9975 21.5274 5.36932 22.2631 7.91881 22.2631Z" fill="black"/>
</svg>
