<svg width="24" height="25" viewBox="0 0 24 25" fill="none" xmlns="http://www.w3.org/2000/svg">
<g clip-path="url(#clip0_5291_100565)">
<path d="M12 4.46489C14.6667 4.46489 15 4.46489 16.0833 4.54823C18.8333 4.63156 20.0833 5.96489 20.1667 8.63156C20.25 9.71489 20.25 9.96489 20.25 12.6316C20.25 15.2983 20.25 15.6316 20.1667 16.6316C20.0833 19.2983 18.75 20.6316 16.0833 20.7149C15 20.7983 14.75 20.7983 12 20.7983C9.33333 20.7983 9 20.7983 8 20.7149C5.25 20.6316 4 19.2983 3.91667 16.6316C3.83333 15.5483 3.83333 15.2983 3.83333 12.6316C3.83333 9.96489 3.83333 9.63156 3.91667 8.63156C4 5.96489 5.33333 4.63156 8 4.54823C9 4.46489 9.33333 4.46489 12 4.46489ZM12 2.63156C9.25 2.63156 8.91667 2.63156 7.91667 2.71489C4.25 2.88156 2.25 4.88156 2.08333 8.54823C2 9.54823 2 9.88156 2 12.6316C2 15.3816 2 15.7149 2.08333 16.7149C2.25 20.3816 4.25 22.3816 7.91667 22.5483C8.91667 22.6316 9.25 22.6316 12 22.6316C14.75 22.6316 15.0833 22.6316 16.0833 22.5483C19.75 22.3816 21.75 20.3816 21.9167 16.7149C22 15.7149 22 15.3816 22 12.6316C22 9.88156 22 9.54823 21.9167 8.54823C21.75 4.88156 19.75 2.88156 16.0833 2.71489C15.0833 2.63156 14.75 2.63156 12 2.63156ZM12 7.46489C9.16667 7.46489 6.83333 9.79823 6.83333 12.6316C6.83333 15.4649 9.16667 17.7983 12 17.7983C14.8333 17.7983 17.1667 15.4649 17.1667 12.6316C17.1667 9.79823 14.8333 7.46489 12 7.46489ZM12 15.9649C10.1667 15.9649 8.66667 14.4649 8.66667 12.6316C8.66667 10.7982 10.1667 9.29823 12 9.29823C13.8333 9.29823 15.3333 10.7982 15.3333 12.6316C15.3333 14.4649 13.8333 15.9649 12 15.9649ZM17.3333 6.13156C16.6667 6.13156 16.1667 6.63156 16.1667 7.29823C16.1667 7.96489 16.6667 8.46489 17.3333 8.46489C18 8.46489 18.5 7.96489 18.5 7.29823C18.5 6.63156 18 6.13156 17.3333 6.13156Z" fill="black"/>
</g>
<defs>
<clipPath id="clip0_5291_100565">
<rect width="20" height="20" fill="white" transform="translate(2 2.63156)"/>
</clipPath>
</defs>
</svg>
