<svg width="24" height="25" viewBox="0 0 24 25" fill="none" xmlns="http://www.w3.org/2000/svg">
<path d="M22.5395 8.14605C22.4207 7.69046 22.1788 7.27304 21.8381 6.93594C21.4975 6.59884 21.0703 6.354 20.5996 6.22615C18.8796 5.82297 12 5.82297 12 5.82297C12 5.82297 5.12036 5.82297 3.40045 6.26454C2.92972 6.3924 2.50247 6.63724 2.16186 6.97434C1.82124 7.31144 1.57933 7.72886 1.46055 8.18444C1.14578 9.86009 0.991808 11.5599 1.00057 13.2626C0.989351 14.9781 1.14333 16.6909 1.46055 18.3791C1.5915 18.8205 1.83883 19.2221 2.17865 19.545C2.51847 19.8678 2.93929 20.1011 3.40045 20.2222C5.12036 20.6638 12 20.6638 12 20.6638C12 20.6638 18.8796 20.6638 20.5996 20.2222C21.0703 20.0944 21.4975 19.8495 21.8381 19.5124C22.1788 19.1753 22.4207 18.7579 22.5395 18.3023C22.8518 16.6393 23.0058 14.9524 22.9994 13.2626C23.0107 11.5471 22.8567 9.83431 22.5395 8.14605V8.14605Z" stroke="black" stroke-width="1.82538" stroke-linecap="round" stroke-linejoin="round"/>
<path d="M9.75 16.4016L15.4997 13.2626L9.75 10.1236V16.4016Z" stroke="black" stroke-width="1.82538" stroke-linecap="round" stroke-linejoin="round"/>
</svg>
