<svg fill="none" height="43" viewBox="0 0 42 43" width="42" xmlns="http://www.w3.org/2000/svg"><path clip-rule="evenodd" d="m20.5325.00987882c-.0963.00706798-.3955.02952548-.665.04989398-2.5128.1899662-5.1674.8853832-7.5082 1.9668572-3.47962 1.60761-6.35551 4.1404-8.69729 7.65961-1.95958 2.94486-3.048647 5.93946-3.399908 9.34856-.07308.7094-.084455 2.7325-.01946 3.4644.245316 2.7628.960048 5.4887 2.041278 7.7851 2.62052 5.5657 7.5486 9.66 13.61818 11.3141 3.2128.8755 6.5512.9926 9.8104.3441 2.7176-.5408 5.2894-1.5982 7.5729-3.1137.3174-.2107.607-.4237.6436-.4733.0605-.0821.062-.1012.0167-.209-.0275-.0652-.562-.9959-1.1879-2.0683s-1.5988-2.7489-2.1619-3.7255c-.5633-.9767-1.0483-1.8032-1.0779-1.8367s-.0796-.0609-.1111-.0609-.2299.1272-.4408.2828c-1.9237 1.4183-3.8534 2.2274-5.9836 2.5086-.4659.0615-2.2226.0621-2.695.0009-1.6919-.2192-3.4651-.788-4.8027-1.5404-.9863-.5549-1.7303-1.1183-2.5495-1.9306-.6694-.6638-1.0574-1.1297-1.5373-1.8456-1.1268-1.6812-1.8067-3.5798-2.01176-5.6181-.04732-.4706-.04652-1.7698.00147-2.2534.37758-3.807 2.46289-7.1485 5.72519-9.1741 1.7057-1.05913 3.7377-1.69066 5.797-1.80176.4835-.02608.5231-.03349.6024-.11295.0466-.04679.6663-1.29933 1.377-2.78344s1.6092-3.35644 1.9965-4.16073.7042-1.487837.7042-1.519034c0-.031162-.0197-.072595-.0437-.092093-.0933-.07552-1.1518-.24181-2.1613-.3395085-.5384-.0521223-2.4409-.0959927-2.8525-.06580568zm11.4044 1.51485118c-1.6625.19275-3.1055 1.02887-3.9443 2.28538-.2739.41025-.3178.502-.2906.60736.0115.0445.4124.46986.8911.94527l.8702.86435.1959-.32468c.5196-.86115 1.1144-1.37694 1.8808-1.63125.519-.17217 1.0682-.21406 1.5913-.12134 1.3358.23676 1.7764 1.58108.827 2.52329-.3253.32286-.6188.50503-1.6925 1.05062-1.2528.63658-2.0746 1.18663-2.7577 1.84563-1.2182 1.17514-1.8326 2.82554-1.8572 4.98834-.0049.4329.0013.4893.0585.531.0527.0383.8884.0465 4.722.0465 4.1593 0 4.6664-.0058 4.7358-.0542.0778-.0542.0778-.0542.0778-1.236 0-1.1354-.0027-1.1846-.07-1.2515-.0689-.0685-.1166-.0696-3.0908-.0696-2.4783 0-3.0324-.0084-3.0853-.0469-.0955-.0695-.0537-.2887.1235-.6473.1209-.2446.2045-.3544.4662-.6115.3605-.3542.5763-.4855 2.1739-1.32336 1.3121-.68807 1.9372-1.11717 2.5411-1.74434.7606-.78978 1.1382-2.04621.974-3.2405-.0545-.39605-.2589-.97688-.4661-1.32416-.2126-.35629-.6061-.78535-.9584-1.04498-.5366-.3955-1.445-.78877-2.1431-.92786-.5978-.11915-1.2338-.1508-1.7731-.08827zm-5.959 16.66417c-.0675.0231-.1481.0754-.179.1163-.1232.1624-5.1089 8.8053-5.1089 8.8564 0 .0495.496.0556 5.1563.0638l5.1563.009.1375.0916c.1189.0792.2765.333 1.1674 1.8801.5666.9838 1.6726 2.897 2.458 4.2517.7853 1.3547 1.4595 2.5249 1.4982 2.6003.0853.1663.1332.2002.1944.1373.0255-.0262.4593-.7605.964-1.6318.5046-.8713 1.6513-2.8455 2.5482-4.3871 1.5013-2.5806 1.6305-2.8152 1.6294-2.9595-.0012-.1416-.1118-.3458-1.1504-2.1239-.632-1.0819-1.7694-3.0404-2.5276-4.3522s-1.4256-2.4281-1.4831-2.4808c-.0576-.0526-.1399-.0958-.1829-.0959-8.099-.0184-10.1663-.0134-10.2778.0247zm10.4971 20.2743c0 .0564.0234.0696.1225.0696h.1225v.3308c0 .3075.0049.3308.07.3308s.07-.0233.07-.3308v-.3308h.1225c.0992 0 .1225-.0132.1225-.0696 0-.0645-.0233-.0697-.315-.0697-.2916 0-.315.0052-.315.0697zm.735.3308c0 .3771.0041.4004.07.4004.0646 0 .0701-.0236.0711-.3047.0012-.3414.0283-.3297.1205.0522.0536.222.0706.2525.1409.2525s.0873-.0305.1409-.2525c.0923-.3819.1194-.3936.1206-.0522.0008.2471.0109.3047.0535.3047.0437 0 .0525-.068.0525-.4026v-.4027l-.1107.011c-.1067.0105-.1135.0211-.1874.2894l-.0766.2785-.0401-.1479c-.0221-.0814-.0565-.2107-.0765-.2873-.0336-.1287-.0456-.1393-.1575-.1393h-.1212z" fill="#ef492d" fill-rule="evenodd"/></svg>