<svg width="506" height="60" viewBox="0 0 506 60" fill="none" xmlns="http://www.w3.org/2000/svg">
<rect x="0.5" y="0.5" width="505" height="59" rx="4.5" fill="black"/>
<path d="M253.029 32.6263C249.51 32.6263 246.641 35.3098 246.641 39.0058C246.641 42.6793 249.51 45.3853 253.029 45.3853C256.55 45.3853 259.418 42.6793 259.418 39.0058C259.417 35.3098 256.548 32.6263 253.029 32.6263ZM253.029 42.8743C251.1 42.8743 249.438 41.2798 249.438 39.0073C249.438 36.7108 251.102 35.1403 253.029 35.1403C254.958 35.1403 256.62 36.7108 256.62 39.0073C256.62 41.2783 254.958 42.8743 253.029 42.8743ZM239.092 32.6263C235.573 32.6263 232.705 35.3098 232.705 39.0058C232.705 42.6793 235.573 45.3853 239.092 45.3853C242.613 45.3853 245.482 42.6793 245.482 39.0058C245.482 35.3098 242.613 32.6263 239.092 32.6263ZM239.092 42.8743C237.164 42.8743 235.501 41.2798 235.501 39.0073C235.501 36.7108 237.165 35.1403 239.092 35.1403C241.021 35.1403 242.684 36.7108 242.684 39.0073C242.685 41.2783 241.021 42.8743 239.092 42.8743ZM222.516 34.5853V37.2913H228.977C228.784 38.8138 228.279 39.9253 227.507 40.6978C226.567 41.6398 225.096 42.6793 222.516 42.6793C218.539 42.6793 215.43 39.4648 215.43 35.4778C215.43 31.4908 218.539 28.2763 222.516 28.2763C224.662 28.2763 226.229 29.1223 227.385 30.2098L229.29 28.3003C227.674 26.7538 225.53 25.5703 222.516 25.5703C217.068 25.5703 212.488 30.0163 212.488 35.4778C212.488 40.9393 217.068 45.3853 222.516 45.3853C225.457 45.3853 227.676 44.4178 229.41 42.6058C231.193 40.8178 231.749 38.3038 231.749 36.2743C231.749 35.6473 231.701 35.0668 231.603 34.5838H222.516V34.5853ZM290.311 36.6868C289.781 35.2618 288.165 32.6263 284.863 32.6263C281.584 32.6263 278.86 35.2123 278.86 39.0058C278.86 42.5818 281.56 45.3853 285.175 45.3853C288.092 45.3853 289.779 43.5973 290.48 42.5578L288.31 41.1073C287.587 42.1708 286.598 42.8713 285.175 42.8713C283.754 42.8713 282.741 42.2188 282.09 40.9378L290.599 37.4098L290.311 36.6868ZM281.632 38.8138C281.56 36.3478 283.537 35.0923 284.96 35.0923C286.069 35.0923 287.008 35.6488 287.323 36.4453L281.632 38.8138ZM274.715 44.9998H277.51V26.2483H274.715V44.9998ZM270.133 34.0528H270.037C269.41 33.3028 268.204 32.6263 266.687 32.6263C263.505 32.6263 260.588 35.4298 260.588 39.0313C260.588 42.6073 263.505 45.3868 266.687 45.3868C268.206 45.3868 269.41 44.7103 270.037 43.9378H270.133V44.8558C270.133 47.2963 268.831 48.6013 266.735 48.6013C265.023 48.6013 263.962 47.3698 263.528 46.3303L261.094 47.3458C261.793 49.0363 263.648 51.1153 266.735 51.1153C270.013 51.1153 272.786 49.1818 272.786 44.4688V33.0148H270.135V34.0528H270.133ZM266.928 42.8743C264.999 42.8743 263.385 41.2543 263.385 39.0313C263.385 36.7828 264.999 35.1403 266.928 35.1403C268.831 35.1403 270.326 36.7828 270.326 39.0313C270.326 41.2543 268.831 42.8743 266.928 42.8743ZM303.409 26.2483H296.719V44.9998H299.51V37.8958H303.408C306.502 37.8958 309.546 35.6503 309.546 32.0728C309.546 28.4953 306.504 26.2483 303.409 26.2483ZM303.481 35.2858H299.51V28.8583H303.481C305.568 28.8583 306.753 30.5908 306.753 32.0728C306.753 33.5248 305.568 35.2858 303.481 35.2858ZM320.736 32.5933C318.715 32.5933 316.622 33.4858 315.755 35.4643L318.233 36.5008C318.763 35.4643 319.75 35.1253 320.784 35.1253C322.228 35.1253 323.696 35.9938 323.72 37.5373V37.7308C323.214 37.4413 322.131 37.0078 320.808 37.0078C318.137 37.0078 315.417 38.4793 315.417 41.2288C315.417 43.7383 317.608 45.3538 320.062 45.3538C321.938 45.3538 322.973 44.5093 323.623 43.5193H323.718V44.9668H326.415V37.7773C326.416 34.4503 323.935 32.5933 320.736 32.5933ZM320.398 42.8698C319.485 42.8698 318.209 42.4108 318.209 41.2768C318.209 39.8293 319.798 39.2743 321.17 39.2743C322.396 39.2743 322.975 39.5398 323.72 39.9013C323.503 41.6398 322.011 42.8698 320.398 42.8698ZM336.233 33.0028L333.033 41.1328H332.937L329.615 33.0028H326.608L331.589 44.3653L328.749 50.6863H331.661L339.338 33.0028H336.233ZM311.087 44.9998H313.877V26.2483H311.087V44.9998Z" fill="white"/>
<path d="M222.029 15.3638C222.029 16.6208 221.658 17.6213 220.914 18.3683C220.07 19.2563 218.969 19.7003 217.616 19.7003C216.32 19.7003 215.218 19.2503 214.312 18.3503C213.406 17.4488 212.952 16.3328 212.952 15.0008C212.952 13.6673 213.406 12.5513 214.312 11.6513C215.218 10.7498 216.32 10.2998 217.616 10.2998C218.26 10.2998 218.874 10.4258 219.458 10.6763C220.043 10.9283 220.511 11.2628 220.862 11.6813L220.073 12.4733C219.479 11.7608 218.661 11.4053 217.615 11.4053C216.669 11.4053 215.852 11.7383 215.162 12.4043C214.472 13.0703 214.128 13.9358 214.128 14.9993C214.128 16.0628 214.472 16.9283 215.162 17.5943C215.852 18.2603 216.669 18.5933 217.615 18.5933C218.617 18.5933 219.454 18.2588 220.122 17.5883C220.556 17.1518 220.808 16.5443 220.875 15.7658H217.615V14.6843H221.964C222.009 14.9198 222.029 15.1463 222.029 15.3638Z" fill="white"/>
<path d="M228.927 11.6049H224.839V14.4579H228.526V15.5394H224.839V18.3924H228.927V19.4994H223.685V10.4994H228.927V11.6049Z" fill="white"/>
<path d="M233.791 19.4994H232.637V11.6049H230.13V10.4994H236.299V11.6049H233.791V19.4994Z" fill="white"/>
<path d="M240.762 19.4994V10.4994H241.916V19.4994H240.762Z" fill="white"/>
<path d="M247.032 19.4994H245.878V11.6049H243.371V10.4994H249.54V11.6049H247.032V19.4994Z" fill="white"/>
<path d="M261.218 18.3369C260.335 19.2459 259.238 19.7004 257.926 19.7004C256.614 19.7004 255.517 19.2459 254.636 18.3369C253.753 17.4279 253.313 16.3149 253.313 14.9994C253.313 13.6839 253.753 12.5709 254.636 11.6619C255.517 10.7529 256.614 10.2969 257.926 10.2969C259.231 10.2969 260.326 10.7544 261.212 11.6679C262.098 12.5814 262.541 13.6914 262.541 14.9994C262.541 16.3149 262.099 17.4279 261.218 18.3369ZM255.487 17.5824C256.152 18.2574 256.964 18.5934 257.926 18.5934C258.888 18.5934 259.702 18.2559 260.365 17.5824C261.029 16.9074 261.363 16.0464 261.363 14.9994C261.363 13.9524 261.029 13.0914 260.365 12.4164C259.702 11.7414 258.888 11.4054 257.926 11.4054C256.964 11.4054 256.152 11.7429 255.487 12.4164C254.824 13.0914 254.491 13.9524 254.491 14.9994C254.491 16.0464 254.824 16.9074 255.487 17.5824Z" fill="white"/>
<path d="M264.16 19.4994V10.4994H265.563L269.926 17.4999H269.976L269.926 15.7659V10.4994H271.08V19.4994H269.876L265.31 12.1584H265.261L265.31 13.8924V19.4994H264.16Z" fill="white"/>
<path d="M222.029 15.3638C222.029 16.6208 221.658 17.6213 220.914 18.3683C220.07 19.2563 218.969 19.7003 217.616 19.7003C216.32 19.7003 215.218 19.2503 214.312 18.3503C213.406 17.4488 212.952 16.3328 212.952 15.0008C212.952 13.6673 213.406 12.5513 214.312 11.6513C215.218 10.7498 216.32 10.2998 217.616 10.2998C218.26 10.2998 218.874 10.4258 219.458 10.6763C220.043 10.9283 220.511 11.2628 220.862 11.6813L220.073 12.4733C219.479 11.7608 218.661 11.4053 217.615 11.4053C216.669 11.4053 215.852 11.7383 215.162 12.4043C214.472 13.0703 214.128 13.9358 214.128 14.9993C214.128 16.0628 214.472 16.9283 215.162 17.5943C215.852 18.2603 216.669 18.5933 217.615 18.5933C218.617 18.5933 219.454 18.2588 220.122 17.5883C220.556 17.1518 220.808 16.5443 220.875 15.7658H217.615V14.6843H221.964C222.009 14.9198 222.029 15.1463 222.029 15.3638Z" stroke="white" stroke-width="0.2" stroke-miterlimit="10"/>
<path d="M228.927 11.6049H224.839V14.4579H228.526V15.5394H224.839V18.3924H228.927V19.4994H223.685V10.4994H228.927V11.6049Z" stroke="white" stroke-width="0.2" stroke-miterlimit="10"/>
<path d="M233.791 19.4994H232.637V11.6049H230.13V10.4994H236.299V11.6049H233.791V19.4994Z" stroke="white" stroke-width="0.2" stroke-miterlimit="10"/>
<path d="M240.762 19.4994V10.4994H241.916V19.4994H240.762Z" stroke="white" stroke-width="0.2" stroke-miterlimit="10"/>
<path d="M247.032 19.4994H245.878V11.6049H243.371V10.4994H249.54V11.6049H247.032V19.4994Z" stroke="white" stroke-width="0.2" stroke-miterlimit="10"/>
<path d="M261.218 18.3369C260.335 19.2459 259.238 19.7004 257.926 19.7004C256.614 19.7004 255.517 19.2459 254.636 18.3369C253.753 17.4279 253.313 16.3149 253.313 14.9994C253.313 13.6839 253.753 12.5709 254.636 11.6619C255.517 10.7529 256.614 10.2969 257.926 10.2969C259.231 10.2969 260.326 10.7544 261.212 11.6679C262.098 12.5814 262.541 13.6914 262.541 14.9994C262.541 16.3149 262.099 17.4279 261.218 18.3369ZM255.487 17.5824C256.152 18.2574 256.964 18.5934 257.926 18.5934C258.888 18.5934 259.702 18.2559 260.365 17.5824C261.029 16.9074 261.363 16.0464 261.363 14.9994C261.363 13.9524 261.029 13.0914 260.365 12.4164C259.702 11.7414 258.888 11.4054 257.926 11.4054C256.964 11.4054 256.152 11.7429 255.487 12.4164C254.824 13.0914 254.491 13.9524 254.491 14.9994C254.491 16.0464 254.824 16.9074 255.487 17.5824Z" stroke="white" stroke-width="0.2" stroke-miterlimit="10"/>
<path d="M264.16 19.4994V10.4994H265.563L269.926 17.4999H269.976L269.926 15.7659V10.4994H271.08V19.4994H269.876L265.31 12.1584H265.261L265.31 13.8924V19.4994H264.16Z" stroke="white" stroke-width="0.2" stroke-miterlimit="10"/>
<g filter="url(#filter0_ii_4024_77463)">
<path d="M166.693 11.3066C166.257 11.7686 166 12.4856 166 13.4141V46.5881C166 47.518 166.257 48.2336 166.693 48.6956L166.804 48.8036L185.341 30.2201V30.0011V29.7821L166.804 11.1971L166.693 11.3066Z" fill="url(#paint0_linear_4024_77463)"/>
<path d="M191.519 36.4165L185.341 30.22V30.001V29.782L191.521 23.587L191.66 23.6665L198.981 27.8365C201.072 29.0275 201.072 30.976 198.981 32.1685L191.66 36.3385L191.519 36.4165Z" fill="url(#paint1_linear_4024_77463)"/>
<g filter="url(#filter1_i_4024_77463)">
<path d="M191.66 36.337L185.34 30.001L166.693 48.6955C167.381 49.4275 168.52 49.5175 169.802 48.7885L191.66 36.337Z" fill="url(#paint2_linear_4024_77463)"/>
</g>
<path d="M191.66 23.6651L169.802 11.2151C168.52 10.4846 167.381 10.5761 166.693 11.3081L185.341 30.0026L191.66 23.6651Z" fill="url(#paint3_linear_4024_77463)"/>
</g>
<rect x="0.5" y="0.5" width="505" height="59" rx="4.5" stroke="#A6A6A6"/>
<defs>
<filter id="filter0_ii_4024_77463" x="166" y="10.7109" width="34.5491" height="38.5811" filterUnits="userSpaceOnUse" color-interpolation-filters="sRGB">
<feFlood flood-opacity="0" result="BackgroundImageFix"/>
<feBlend mode="normal" in="SourceGraphic" in2="BackgroundImageFix" result="shape"/>
<feColorMatrix in="SourceAlpha" type="matrix" values="0 0 0 0 0 0 0 0 0 0 0 0 0 0 0 0 0 0 127 0" result="hardAlpha"/>
<feOffset dy="-0.15"/>
<feComposite in2="hardAlpha" operator="arithmetic" k2="-1" k3="1"/>
<feColorMatrix type="matrix" values="0 0 0 0 0 0 0 0 0 0 0 0 0 0 0 0 0 0 0.12 0"/>
<feBlend mode="normal" in2="shape" result="effect1_innerShadow_4024_77463"/>
<feColorMatrix in="SourceAlpha" type="matrix" values="0 0 0 0 0 0 0 0 0 0 0 0 0 0 0 0 0 0 127 0" result="hardAlpha"/>
<feOffset dy="0.15"/>
<feComposite in2="hardAlpha" operator="arithmetic" k2="-1" k3="1"/>
<feColorMatrix type="matrix" values="0 0 0 0 1 0 0 0 0 1 0 0 0 0 1 0 0 0 0.25 0"/>
<feBlend mode="normal" in2="effect1_innerShadow_4024_77463" result="effect2_innerShadow_4024_77463"/>
</filter>
<filter id="filter1_i_4024_77463" x="166.693" y="30.001" width="24.9673" height="19.291" filterUnits="userSpaceOnUse" color-interpolation-filters="sRGB">
<feFlood flood-opacity="0" result="BackgroundImageFix"/>
<feBlend mode="normal" in="SourceGraphic" in2="BackgroundImageFix" result="shape"/>
<feColorMatrix in="SourceAlpha" type="matrix" values="0 0 0 0 0 0 0 0 0 0 0 0 0 0 0 0 0 0 127 0" result="hardAlpha"/>
<feOffset dy="-0.15"/>
<feComposite in2="hardAlpha" operator="arithmetic" k2="-1" k3="1"/>
<feColorMatrix type="matrix" values="0 0 0 0 0 0 0 0 0 0 0 0 0 0 0 0 0 0 0.08 0"/>
<feBlend mode="normal" in2="shape" result="effect1_innerShadow_4024_77463"/>
</filter>
<linearGradient id="paint0_linear_4024_77463" x1="183.698" y1="13.0631" x2="158.525" y2="38.1738" gradientUnits="userSpaceOnUse">
<stop stop-color="#00A0FF"/>
<stop offset="0.0066" stop-color="#00A1FF"/>
<stop offset="0.2601" stop-color="#00BEFF"/>
<stop offset="0.5122" stop-color="#00D2FF"/>
<stop offset="0.7604" stop-color="#00DFFF"/>
<stop offset="1" stop-color="#00E3FF"/>
</linearGradient>
<linearGradient id="paint1_linear_4024_77463" x1="201.702" y1="30.001" x2="165.498" y2="30.001" gradientUnits="userSpaceOnUse">
<stop stop-color="#FFE000"/>
<stop offset="0.4087" stop-color="#FFBD00"/>
<stop offset="0.7754" stop-color="#FFA500"/>
<stop offset="1" stop-color="#FF9C00"/>
</linearGradient>
<linearGradient id="paint2_linear_4024_77463" x1="188.228" y1="33.4419" x2="154.09" y2="67.4952" gradientUnits="userSpaceOnUse">
<stop stop-color="#FF3A44"/>
<stop offset="1" stop-color="#C31162"/>
</linearGradient>
<linearGradient id="paint3_linear_4024_77463" x1="161.997" y1="0.26475" x2="177.24" y2="15.4705" gradientUnits="userSpaceOnUse">
<stop stop-color="#32A071"/>
<stop offset="0.0685" stop-color="#2DA771"/>
<stop offset="0.4762" stop-color="#15CF74"/>
<stop offset="0.8009" stop-color="#06E775"/>
<stop offset="1" stop-color="#00F076"/>
</linearGradient>
</defs>
</svg>
