<svg width="28" height="28" viewBox="0 0 28 28" fill="none" xmlns="http://www.w3.org/2000/svg">
<path d="M26.7905 27.125C26.2524 25.5928 25.2525 24.2651 23.9284 23.3249C22.6043 22.3846 21.0213 21.8781 19.3973 21.875H19.3903C17.7665 21.878 16.1836 22.3845 14.8597 23.3248C13.5358 24.2651 12.5361 25.5928 11.9983 27.125" stroke="#476788" stroke-width="1.5" stroke-linecap="round" stroke-linejoin="round"/>
<path d="M15.2428 12.8695C16.3714 14.0382 17.829 14.8356 19.4219 15.1557C21.0147 15.4758 22.6672 15.3034 24.1597 14.6615" stroke="#476788" stroke-width="1.5" stroke-linecap="round" stroke-linejoin="round"/>
<path d="M14.5778 15.3125C14.5778 15.9445 14.7023 16.5703 14.9442 17.1542C15.186 17.738 15.5405 18.2686 15.9874 18.7155C16.4343 19.1623 16.9648 19.5168 17.5487 19.7587C18.1326 20.0005 18.7583 20.125 19.3903 20.125C20.0223 20.125 20.6481 20.0005 21.232 19.7587C21.8159 19.5168 22.3464 19.1623 22.7933 18.7155C23.2402 18.2686 23.5947 17.738 23.8365 17.1542C24.0784 16.5703 24.2028 15.9445 24.2028 15.3125C24.2028 14.6805 24.0784 14.0547 23.8365 13.4708C23.5947 12.887 23.2402 12.3564 22.7933 11.9095C22.3464 11.4627 21.8159 11.1082 21.232 10.8663C20.6481 10.6245 20.0223 10.5 19.3903 10.5C18.7583 10.5 18.1326 10.6245 17.5487 10.8663C16.9648 11.1082 16.4343 11.4627 15.9874 11.9095C15.5405 12.3564 15.186 12.887 14.9442 13.4708C14.7023 14.0547 14.5778 14.6805 14.5778 15.3125V15.3125Z" stroke="#476788" stroke-width="1.5" stroke-linecap="round" stroke-linejoin="round"/>
<path d="M13.2653 9.625H11.5153V12.25L8.01533 9.625H2.76533C2.30121 9.625 1.85609 9.44063 1.5279 9.11244C1.19971 8.78425 1.01534 8.33913 1.01534 7.875V2.625C1.01534 2.16087 1.19971 1.71575 1.5279 1.38756C1.85609 1.05937 2.30121 0.875 2.76533 0.875H13.2653C13.7295 0.875 14.1746 1.05937 14.5028 1.38756C14.831 1.71575 15.0153 2.16087 15.0153 2.625V7.875C15.0153 8.33913 14.831 8.78425 14.5028 9.11244C14.1746 9.44063 13.7295 9.625 13.2653 9.625V9.625Z" stroke="#476788" stroke-width="1.5" stroke-linecap="round" stroke-linejoin="round"/>
<path d="M8.89034 3.5H4.51534" stroke="#476788" stroke-width="1.5" stroke-linecap="round" stroke-linejoin="round"/>
<path d="M11.5153 6.125H4.51534" stroke="#476788" stroke-width="1.5" stroke-linecap="round" stroke-linejoin="round"/>
<path d="M3.1655 18.375C3.1655 19.3033 3.53425 20.1935 4.19062 20.8499C4.847 21.5063 5.73724 21.875 6.6655 21.875C7.59375 21.875 8.48399 21.5063 9.14037 20.8499C9.79675 20.1935 10.1655 19.3033 10.1655 18.375C10.1655 17.4467 9.79675 16.5565 9.14037 15.9001C8.48399 15.2437 7.59375 14.875 6.6655 14.875C5.73724 14.875 4.847 15.2437 4.19062 15.9001C3.53425 16.5565 3.1655 17.4467 3.1655 18.375Z" stroke="#476788" stroke-width="1.5" stroke-linecap="round" stroke-linejoin="round"/>
<path d="M9.77234 24.654C8.87562 23.9842 7.78593 23.6232 6.66667 23.625C5.58399 23.627 4.52857 23.9647 3.64579 24.5916C2.76301 25.2184 2.09631 26.1035 1.7375 27.125" stroke="#476788" stroke-width="1.5" stroke-linecap="round" stroke-linejoin="round"/>
<path d="M19.3903 21.875V27.125" stroke="#476788" stroke-width="1.5" stroke-linecap="round" stroke-linejoin="round"/>
</svg>
