<svg width="32" height="22" viewBox="0 0 32 22" fill="none" xmlns="http://www.w3.org/2000/svg">
<path d="M1.0015 13.7129C0.982496 12.8197 1.1441 11.9319 1.47662 11.1027C1.80914 10.2734 2.30572 9.51994 2.93658 8.88734C3.56744 8.25473 4.31958 7.75607 5.14787 7.42127C5.97617 7.08646 6.86355 6.92241 7.7568 6.93895C8.46202 5.33545 9.61479 3.9694 11.0769 3.00461C12.539 2.03981 14.2483 1.51723 16 1.49951C18.3709 1.54415 20.6349 2.49447 22.3274 4.15547C24.0199 5.81647 25.0125 8.06222 25.1017 10.4319C25.8287 10.2893 26.5785 10.3118 27.2956 10.4978C28.0128 10.6838 28.679 11.0286 29.245 11.5066C29.8111 11.9846 30.2625 12.5836 30.566 13.2595C30.8695 13.9354 31.0172 14.6708 30.9984 15.4114C30.9984 20.5815 25.7816 20.5002 25.7816 20.5002H6.87023C5.23587 20.2716 3.74006 19.4575 2.66067 18.2092C1.58129 16.9608 0.991725 15.3632 1.0015 13.7129V13.7129Z" stroke="#006BFF" stroke-width="1.99977" stroke-linecap="round" stroke-linejoin="round"/>
<path d="M15.9999 20.4975L18.9995 15.498" stroke="#006BFF" stroke-width="1.99977" stroke-linecap="round" stroke-linejoin="round"/>
<path d="M21.9994 20.4975L24.9991 15.498" stroke="#006BFF" stroke-width="1.99977" stroke-linecap="round" stroke-linejoin="round"/>
</svg>
