<svg xmlns="http://www.w3.org/2000/svg" width="33" height="33" fill="none" xmlns:v="https://vecta.io/nano"><style><![CDATA[.B{stroke-linecap:round}.C{stroke-linejoin:round}]]></style><g stroke="#006bff" class="B C"><path d="M6.643 1l1.042 3.683m4.949-2.946L10.55 5.092M1 10.086l3.994-.982M1.781 4.438L5.34 6.402" stroke-width="1.404" stroke-miterlimit="10"/><g stroke-width="2.158"><path d="M23.35 22.185l-1.897-1.341a1.83 1.83 0 0 0-.649-.288 1.9 1.9 0 0 0-.717-.023c-.238.038-.466.122-.668.247s-.376.286-.51.476h0a1.61 1.61 0 0 0 0 1.859l1.863 2.636a5.05 5.05 0 0 0 2.349 1.797l2.779 1.048V31m-3.401-14.424l4.08 1.646c1.204.486 2.163 1.391 2.679 2.526l1.329 2.933A4.57 4.57 0 0 1 31 25.576V31"/><path d="M22.499 21.585v-11.42c0-.85-.358-1.665-.996-2.267S20.001 6.96 19.1 6.96H10.6c-.902 0-1.766.338-2.404.939S7.2 9.315 7.2 10.165v17.63c0 .85.358 1.665.996 2.267S9.698 31 10.6 31H19.1c.902 0 1.767-.338 2.404-.939s.996-1.416.996-2.267v-.534"/><path d="M21.125 26.192H7.201"/></g></g></svg>