<svg width="33" height="32" viewBox="0 0 33 32" fill="none" xmlns="http://www.w3.org/2000/svg">
<path d="M7.83337 30.996L13.236 18.3907C13.301 18.2385 13.3273 18.0727 13.3125 17.9079C13.2978 17.7432 13.2424 17.5847 13.1514 17.4465C13.0604 17.3084 12.9366 17.1949 12.7911 17.1163C12.6455 17.0377 12.4828 16.9964 12.3174 16.996H8.36671C8.20076 16.9966 8.03728 16.9559 7.89103 16.8775C7.74478 16.7991 7.62037 16.6854 7.52906 16.5469C7.43774 16.4083 7.38239 16.2492 7.36801 16.0839C7.35364 15.9185 7.38068 15.7522 7.44671 15.6L13.5667 1.6C13.6445 1.42175 13.7726 1.27005 13.9353 1.16348C14.098 1.05691 14.2882 1.0001 14.4827 1H24.7494C24.9378 1.00007 25.1223 1.05336 25.2818 1.15373C25.4412 1.25411 25.5691 1.39748 25.6506 1.56734C25.7321 1.7372 25.764 1.92663 25.7425 2.11381C25.7211 2.30099 25.6472 2.47831 25.5294 2.62533L20.1294 9.376C20.0119 9.52313 19.9383 9.70044 19.9171 9.88753C19.896 10.0746 19.928 10.2639 20.0097 10.4335C20.0913 10.6032 20.2192 10.7464 20.3786 10.8466C20.538 10.9468 20.7224 11 20.9107 11H25.42C25.618 10.9999 25.8115 11.0586 25.976 11.1685C26.1406 11.2785 26.2689 11.4348 26.3445 11.6177C26.4202 11.8006 26.4399 12.0018 26.4011 12.1959C26.3623 12.39 26.2668 12.5682 26.1267 12.708L7.83337 30.996Z" stroke="#006BFF" stroke-width="2" stroke-linejoin="round"/>
</svg>
