<svg width="165" height="32" viewBox="0 0 165 32" fill="none" xmlns="http://www.w3.org/2000/svg">
<path d="M90.1309 28.9572H111.32V26.369H93.7634V18.0871H106.951V15.4683H93.7634V7.83805H111.32V5.25928H90.1309V28.9572Z" fill="#B1B1B1"/>
<path d="M101.141 1.42773L98.2725 4.65059L107.278 1.42773H101.141Z" fill="#B1B1B1"/>
<path d="M146.89 26.369V5.25928H143.578V28.9572H164.999V26.369H146.89Z" fill="#B1B1B1"/>
<path d="M125.049 5.25928L113 28.9572H117.073L120.156 22.8235H134.607L137.716 28.9572H141.747L129.688 5.25928H125.049ZM121.681 19.853L127.359 8.53387L133.104 19.853H121.681Z" fill="#B1B1B1"/>
<path d="M78.6321 19.0479C84.0611 17.5991 84.5887 13.5597 84.5611 12.1155C84.2371 7.88198 81.3846 5.25928 76.2593 5.25928H61.3232V28.9572H64.7281V19.0163H74.4519L81.6055 28.9572H85.8971C85.8968 28.9572 80.749 22.2668 78.6321 19.0479ZM75.7944 16.2162H64.7281V8.06424H76.1801C78.8167 8.06424 80.2999 9.29513 80.8342 10.8587C81.1876 11.9305 80.9611 13.3376 80.3763 14.2954C79.4192 15.8792 77.601 16.2162 75.7944 16.2162Z" fill="#B1B1B1"/>
<path d="M40.8637 1.24561C31.2521 1.24561 24.7012 8.02238 24.7012 16.2246C24.7012 24.8595 31.9377 30.9553 40.8637 30.9553C49.7837 30.9553 57.0173 24.9466 57.0173 16.2246C57.0173 8.02238 50.3853 1.24561 40.8637 1.24561ZM40.7483 28.0137C34.0986 28.0137 28.6196 22.6699 28.6196 16.2327C28.6196 9.80418 33.8399 4.20451 41.0061 4.20451C47.9947 4.20451 53.1319 9.80418 53.1319 16.2327C53.1319 22.6697 47.3952 28.0137 40.7483 28.0137Z" fill="#B1B1B1"/>
<path d="M16.123 13.6427H18.5798L23.0394 5.25928H19.4507L16.123 13.6427Z" fill="#B1B1B1"/>
<path d="M4.11261 26.369V5.25928H0.798828V28.9572H22.2186V26.369H4.11261Z" fill="#B1B1B1"/>
</svg>
