<svg width="96" height="96" viewBox="0 0 96 96" fill="none" xmlns="http://www.w3.org/2000/svg">
<path d="M52 60V28M52 60L74.016 72.58C74.6242 72.9275 75.3131 73.1091 76.0135 73.1067C76.714 73.1043 77.4015 72.9181 78.0074 72.5665C78.6133 72.215 79.1162 71.7105 79.4659 71.1036C79.8156 70.4966 79.9998 69.8085 80 69.108V18.892C79.9998 18.1915 79.8156 17.5034 79.4659 16.8965C79.1162 16.2895 78.6133 15.785 78.0074 15.4335C77.4015 15.082 76.714 14.8957 76.0135 14.8933C75.3131 14.891 74.6242 15.0726 74.016 15.42L52 28M52 60H40M52 28H28C23.7565 28 19.6869 29.6857 16.6863 32.6863C13.6857 35.6869 12 39.7566 12 44V44C12 48.2435 13.6857 52.3131 16.6863 55.3137C19.6869 58.3143 23.7565 60 28 60M28 60V78C28 79.5913 28.6321 81.1174 29.7574 82.2427C30.8826 83.3679 32.4087 84 34 84C35.5913 84 37.1174 83.3679 38.2426 82.2427C39.3679 81.1174 40 79.5913 40 78V60M28 60H40" stroke="#006BFF" stroke-width="5" stroke-linecap="round" stroke-linejoin="round"/>
</svg>
