<svg width="24" height="24" viewBox="0 0 24 24" fill="none" xmlns="http://www.w3.org/2000/svg">
<path d="M3.20001 3.93333C3.20001 4.7113 3.50906 5.45741 4.05917 6.00751C4.60927 6.55762 5.35538 6.86667 6.13335 6.86667C6.91131 6.86667 7.65742 6.55762 8.20753 6.00751C8.75763 5.45741 9.06668 4.7113 9.06668 3.93333C9.06668 3.15536 8.75763 2.40926 8.20753 1.85915C7.65742 1.30905 6.91131 1 6.13335 1C5.35538 1 4.60927 1.30905 4.05917 1.85915C3.50906 2.40926 3.20001 3.15536 3.20001 3.93333V3.93333Z" stroke="#006BFF" stroke-width="1.46667" stroke-linecap="round" stroke-linejoin="round"/>
<path d="M10.5871 10.9127C10.024 9.93167 9.15264 9.1641 8.10845 8.72917C7.06426 8.29425 5.90567 8.21632 4.81265 8.5075C3.71963 8.79867 2.75335 9.44265 2.06391 10.3394C1.37448 11.2362 1.00048 12.3355 1 13.4666V15.6666H3.2L3.93333 23H8.33333L8.65013 19.8388" stroke="#006BFF" stroke-width="1.46667" stroke-linecap="round" stroke-linejoin="round"/>
<path d="M11.2667 17.1334C11.2667 18.6893 11.8848 20.1815 12.985 21.2818C14.0852 22.382 15.5774 23.0001 17.1333 23.0001C18.6893 23.0001 20.1815 22.382 21.2817 21.2818C22.3819 20.1815 23 18.6893 23 17.1334C23 15.5775 22.3819 14.0852 21.2817 12.985C20.1815 11.8848 18.6893 11.2667 17.1333 11.2667C15.5774 11.2667 14.0852 11.8848 12.985 12.985C11.8848 14.0852 11.2667 15.5775 11.2667 17.1334Z" stroke="#006BFF" stroke-width="1.46667" stroke-linecap="round" stroke-linejoin="round"/>
<path d="M19.7264 17.1334H17.1334V14.5403" stroke="#006BFF" stroke-width="1.46667" stroke-linecap="round" stroke-linejoin="round"/>
<path d="M13.8333 3.56667C13.8333 4.24739 14.1037 4.90023 14.5851 5.38157C15.0664 5.86292 15.7193 6.13333 16.4 6.13333C17.0807 6.13333 17.7335 5.86292 18.2149 5.38157C18.6962 4.90023 18.9666 4.24739 18.9666 3.56667C18.9666 2.88594 18.6962 2.2331 18.2149 1.75176C17.7335 1.27042 17.0807 1 16.4 1C15.7193 1 15.0664 1.27042 14.5851 1.75176C14.1037 2.2331 13.8333 2.88594 13.8333 3.56667V3.56667Z" stroke="#006BFF" stroke-width="1.46667" stroke-linecap="round" stroke-linejoin="round"/>
<path d="M20.2133 9.06662C19.8633 8.46068 19.3737 7.94698 18.7853 7.56816C18.197 7.18933 17.5267 6.95631 16.8302 6.88843C16.1337 6.82055 15.4311 6.91977 14.7807 7.17786C14.1302 7.43595 13.5507 7.84546 13.0902 8.3724" stroke="#006BFF" stroke-width="1.46667" stroke-linecap="round" stroke-linejoin="round"/>
</svg>
