<svg width="24" height="25" viewBox="0 0 24 25" fill="none" xmlns="http://www.w3.org/2000/svg">
<path d="M13 15.2448V7.24482M13 15.2448L18.504 18.3898C18.6561 18.4767 18.8283 18.5221 19.0034 18.5215C19.1785 18.5209 19.3504 18.4743 19.5019 18.3864C19.6533 18.2986 19.7791 18.1724 19.8665 18.0207C19.9539 17.869 19.9999 17.6969 20 17.5218V4.96782C19.9999 4.7927 19.9539 4.62067 19.8665 4.46893C19.7791 4.31719 19.6533 4.19107 19.5019 4.10319C19.3504 4.0153 19.1785 3.96874 19.0034 3.96815C18.8283 3.96755 18.6561 4.01296 18.504 4.09982L13 7.24482M13 15.2448H10M13 7.24482H7C5.93913 7.24482 4.92172 7.66624 4.17157 8.41639C3.42143 9.16654 3 10.184 3 11.2448V11.2448C3 12.3057 3.42143 13.3231 4.17157 14.0732C4.92172 14.8234 5.93913 15.2448 7 15.2448M7 15.2448V19.7448C7 20.1426 7.15804 20.5242 7.43934 20.8055C7.72064 21.0868 8.10218 21.2448 8.5 21.2448C8.89782 21.2448 9.27936 21.0868 9.56066 20.8055C9.84196 20.5242 10 20.1426 10 19.7448V15.2448M7 15.2448H10" stroke="#006BFF" stroke-width="1.25" stroke-linecap="round" stroke-linejoin="round"/>
</svg>
