<svg width="22" height="24" viewBox="0 0 22 24" fill="none" xmlns="http://www.w3.org/2000/svg">
<g clip-path="url(#clip0_7653_119774)">
<path d="M13.5492 22.1496H8.45093L9.08821 18.176H12.9119L13.5492 22.1496Z" stroke="#006BFF" stroke-width="1.25" stroke-linecap="round" stroke-linejoin="round"/>
<path d="M6.53894 22.1497H15.4609" stroke="#006BFF" stroke-width="1.25" stroke-linecap="round" stroke-linejoin="round"/>
<path d="M1.4408 2.28149H20.5592V18.176H1.4408V2.28149Z" stroke="#006BFF" stroke-width="1.25" stroke-linecap="round" stroke-linejoin="round"/>
<path d="M1.4408 15.5269H20.5592" stroke="#006BFF" stroke-width="1.25" stroke-linecap="round" stroke-linejoin="round"/>
<path d="M12.6012 10.1988C12.3385 10.4413 12.0108 10.7433 11.4141 10.7433H11.0586C10.6273 10.7433 10.2362 10.5811 9.95487 10.2855C9.68127 9.99796 9.52978 9.60279 9.52978 9.17388V8.66787C9.52978 8.23896 9.68127 7.8454 9.95487 7.55625C10.2347 7.26067 10.6273 7.09843 11.0586 7.09843H11.4141C12.0108 7.09843 12.3385 7.40042 12.6012 7.64299C12.8748 7.89359 13.1098 8.11206 13.7374 8.11206C13.8348 8.11206 13.9306 8.10402 14.0234 8.08796C14.0234 8.08635 14.0218 8.08475 14.0218 8.08154C13.9847 7.98515 13.9399 7.89038 13.8904 7.79881L13.47 7.04381C13.0851 6.34985 12.3725 5.92255 11.6027 5.92255H10.7633C9.99352 5.92255 9.28091 6.34985 8.89601 7.04381L8.47556 7.79881C8.09067 8.49277 8.09067 9.34576 8.47556 10.0397L8.89601 10.7947C9.28091 11.4887 9.99352 11.916 10.7633 11.916H11.6027C12.3725 11.916 13.0851 11.4887 13.47 10.7947L13.8904 10.0397C13.9414 9.94816 13.9847 9.85338 14.0218 9.75861C14.0218 9.757 14.0234 9.75539 14.0234 9.75218C13.9306 9.73612 13.8348 9.72808 13.7374 9.72808C13.1098 9.72969 12.8748 9.94655 12.6012 10.1988Z" fill="#006BFF"/>
<path d="M11.4155 7.55786H11.0599C10.4045 7.55786 9.97327 8.0446 9.97327 8.66788V9.17389C9.97327 9.79717 10.4045 10.2839 11.0599 10.2839H11.4155C12.3708 10.2839 12.2966 9.27188 13.7388 9.27188C13.8764 9.27188 14.0139 9.28473 14.1469 9.31043C14.1901 9.05341 14.1901 8.78996 14.1469 8.53133C14.0139 8.55704 13.8779 8.56989 13.7388 8.56989C12.295 8.56989 12.3708 7.55786 11.4155 7.55786Z" fill="#006BFF"/>
<path d="M14.9741 9.6799C14.7283 9.49034 14.4454 9.36826 14.1455 9.31043C14.1455 9.31364 14.144 9.31525 14.144 9.31846C14.1177 9.46625 14.0775 9.61243 14.0234 9.7554C14.2769 9.79716 14.5088 9.89676 14.7082 10.0478C14.7082 10.0494 14.7067 10.0526 14.7067 10.0542C14.5923 10.4413 14.4191 10.8076 14.1919 11.1401C13.9678 11.4678 13.6973 11.757 13.3881 11.9995C12.7451 12.5007 11.9784 12.7658 11.1715 12.7658C10.6722 12.7658 10.1868 12.6646 9.73235 12.4638C9.2918 12.2694 8.89609 11.9931 8.55601 11.6397C8.21594 11.2863 7.95007 10.8751 7.76303 10.4172C7.56981 9.94335 7.47242 9.44055 7.47242 8.92168C7.47242 8.40282 7.56981 7.89841 7.76303 7.42613C7.95007 6.96831 8.21594 6.55708 8.55601 6.20367C8.89609 5.85026 9.2918 5.57397 9.73235 5.37959C10.1884 5.17879 10.6722 5.07759 11.1715 5.07759C11.9784 5.07759 12.7451 5.34264 13.3881 5.84384C13.6973 6.0848 13.9693 6.37395 14.1919 6.70326C14.4191 7.03578 14.5923 7.40043 14.7067 7.78918C14.7067 7.79239 14.7082 7.794 14.7082 7.7956C14.5088 7.9466 14.2754 8.0462 14.0234 8.08797C14.0775 8.22933 14.1177 8.37551 14.144 8.5249C14.144 8.52651 14.144 8.52972 14.1455 8.53133C14.4454 8.4735 14.7283 8.34981 14.9741 8.16186C15.2106 7.98034 15.1642 7.77472 15.1287 7.65263C14.6077 5.89524 13.0326 4.61816 11.1715 4.61816C8.88526 4.61816 7.03033 6.54423 7.03033 8.92168C7.03033 11.2991 8.88372 13.2252 11.1715 13.2252C13.0341 13.2252 14.6093 11.9481 15.1287 10.1907C15.1658 10.067 15.2106 9.86142 14.9741 9.6799Z" fill="#006BFF"/>
<path d="M14.0249 8.08792C13.9321 8.10399 13.8363 8.11202 13.7389 8.11202C13.1113 8.11202 12.8748 7.89516 12.6028 7.64295C12.34 7.40039 12.0123 7.09839 11.4156 7.09839H11.0601C10.6288 7.09839 10.2377 7.26063 9.9564 7.55621C9.6828 7.84375 9.53131 8.23892 9.53131 8.66783V9.17384C9.53131 9.60275 9.6828 9.99631 9.9564 10.2855C10.2362 10.581 10.6288 10.7433 11.0601 10.7433H11.4156C12.0123 10.7433 12.34 10.4413 12.6028 10.1987C12.8764 9.94812 13.1113 9.72965 13.7389 9.72965C13.8363 9.72965 13.9321 9.73769 14.0249 9.75375C14.079 9.61239 14.1192 9.46621 14.1455 9.31681C14.1455 9.3136 14.147 9.31199 14.147 9.30878C14.0141 9.28308 13.878 9.27023 13.7389 9.27023C12.2967 9.27023 12.3709 10.2823 11.4156 10.2823H11.0601C10.4047 10.2823 9.9734 9.79552 9.9734 9.17224V8.66783C9.9734 8.04455 10.4047 7.55782 11.0601 7.55782H11.4156C12.3709 7.55782 12.2967 8.56984 13.7389 8.56984C13.8765 8.56984 14.0141 8.55699 14.147 8.53129C14.147 8.52968 14.147 8.52647 14.1455 8.52486C14.1192 8.37547 14.079 8.22929 14.0249 8.08792Z" fill="#0AE9EF"/>
<path d="M14.0249 8.08792C13.9321 8.10399 13.8363 8.11202 13.7389 8.11202C13.1113 8.11202 12.8748 7.89516 12.6028 7.64295C12.34 7.40039 12.0123 7.09839 11.4156 7.09839H11.0601C10.6288 7.09839 10.2377 7.26063 9.9564 7.55621C9.6828 7.84375 9.53131 8.23892 9.53131 8.66783V9.17384C9.53131 9.60275 9.6828 9.99631 9.9564 10.2855C10.2362 10.581 10.6288 10.7433 11.0601 10.7433H11.4156C12.0123 10.7433 12.34 10.4413 12.6028 10.1987C12.8764 9.94812 13.1113 9.72965 13.7389 9.72965C13.8363 9.72965 13.9321 9.73769 14.0249 9.75375C14.079 9.61239 14.1192 9.46621 14.1455 9.31681C14.1455 9.3136 14.147 9.31199 14.147 9.30878C14.0141 9.28308 13.878 9.27023 13.7389 9.27023C12.2967 9.27023 12.3709 10.2823 11.4156 10.2823H11.0601C10.4047 10.2823 9.9734 9.79552 9.9734 9.17224V8.66783C9.9734 8.04455 10.4047 7.55782 11.0601 7.55782H11.4156C12.3709 7.55782 12.2967 8.56984 13.7389 8.56984C13.8765 8.56984 14.0141 8.55699 14.147 8.53129C14.147 8.52968 14.147 8.52647 14.1455 8.52486C14.1192 8.37547 14.079 8.22929 14.0249 8.08792Z" fill="#0AE9EF"/>
</g>
<defs>
<clipPath id="clip0_7653_119774">
<rect width="21.8497" height="22.7064" fill="white" transform="translate(0.0751953 0.862366)"/>
</clipPath>
</defs>
</svg>
