<svg width="25" height="25" viewBox="0 0 25 25" fill="none" xmlns="http://www.w3.org/2000/svg">
<path d="M11.8157 1.51209C11.8562 1.43172 11.9183 1.36418 11.9949 1.31699C12.0715 1.2698 12.1597 1.24481 12.2497 1.24481C12.3397 1.24481 12.428 1.2698 12.5046 1.31699C12.5812 1.36418 12.6432 1.43172 12.6837 1.51209L13.6927 3.54609C13.7276 3.61581 13.7788 3.67606 13.8421 3.72168C13.9053 3.76731 13.9786 3.79695 14.0557 3.80809L16.3197 4.13509C16.4082 4.14751 16.4914 4.18431 16.5601 4.24135C16.6288 4.2984 16.6803 4.37345 16.7087 4.45809C16.7366 4.5424 16.7401 4.6329 16.7187 4.71909C16.6973 4.80528 16.6519 4.88364 16.5877 4.94509L14.9497 6.53909C14.8944 6.59246 14.8529 6.65851 14.8289 6.73152C14.8049 6.80452 14.799 6.88229 14.8117 6.95809L15.1997 9.20509C15.2144 9.293 15.204 9.38325 15.1696 9.4655C15.1353 9.54775 15.0785 9.61866 15.0057 9.67009C14.9324 9.72242 14.846 9.7534 14.7562 9.75958C14.6663 9.76576 14.5765 9.74689 14.4967 9.70509L12.4757 8.65109C12.4061 8.61414 12.3285 8.59482 12.2497 8.59482C12.1709 8.59482 12.0933 8.61414 12.0237 8.65109L10.0077 9.70509C9.92796 9.74689 9.83815 9.76576 9.74829 9.75958C9.65843 9.7534 9.57204 9.72242 9.49874 9.67009C9.42596 9.61866 9.36915 9.54775 9.33484 9.4655C9.30052 9.38325 9.29009 9.293 9.30474 9.20509L9.69274 6.95809C9.70551 6.88229 9.69962 6.80452 9.67558 6.73152C9.65153 6.65851 9.61005 6.59246 9.55474 6.53909L7.91174 4.94509C7.84762 4.88364 7.80222 4.80528 7.78081 4.71909C7.75939 4.6329 7.76283 4.5424 7.79074 4.45809C7.8192 4.37345 7.87067 4.2984 7.93937 4.24135C8.00808 4.18431 8.09131 4.14751 8.17974 4.13509L10.4437 3.80809C10.5209 3.79695 10.5942 3.76731 10.6574 3.72168C10.7206 3.67606 10.7719 3.61581 10.8067 3.54609L11.8157 1.51209Z" stroke="#006BFF" stroke-width="1.25" stroke-linecap="round" stroke-linejoin="round"/>
<path d="M6.57175 10.5951L5.70875 10.1451C5.63881 10.1086 5.56111 10.0896 5.48225 10.0896C5.40338 10.0896 5.32568 10.1086 5.25575 10.1451L3.24075 11.1951C3.16081 11.2368 3.07094 11.2557 2.98098 11.2497C2.89101 11.2437 2.80444 11.213 2.73075 11.1611C2.65798 11.1094 2.60126 11.0383 2.56712 10.9559C2.53298 10.8734 2.5228 10.783 2.53775 10.6951L2.92475 8.44908C2.93782 8.37336 2.93217 8.29559 2.90829 8.22256C2.88441 8.14953 2.84303 8.08344 2.78775 8.03008L1.14375 6.43908C1.08 6.37738 1.03493 6.29897 1.01371 6.21283C0.992483 6.1267 0.995963 6.03633 1.02375 5.95208C1.05221 5.86743 1.10368 5.79239 1.17238 5.73534C1.24109 5.67829 1.32432 5.6415 1.41275 5.62908L3.67575 5.30208C3.75308 5.29109 3.8266 5.26152 3.89 5.21589C3.9534 5.17025 4.00478 5.10993 4.03975 5.04008L5.04975 3.00608C5.09011 2.92562 5.1521 2.85801 5.22877 2.81084C5.30543 2.76367 5.39374 2.73882 5.48375 2.73908" stroke="#006BFF" stroke-width="1.25" stroke-linecap="round" stroke-linejoin="round"/>
<path d="M17.9278 10.5951L18.7908 10.1441C18.8607 10.1076 18.9384 10.0886 19.0173 10.0886C19.0961 10.0886 19.1738 10.1076 19.2438 10.1441L21.2588 11.1951C21.3387 11.2368 21.4286 11.2557 21.5185 11.2497C21.6085 11.2437 21.6951 11.213 21.7688 11.1611C21.8415 11.1094 21.8983 11.0383 21.9324 10.9559C21.9665 10.8734 21.9767 10.783 21.9618 10.6951L21.5748 8.44908C21.5617 8.37336 21.5673 8.29559 21.5912 8.22256C21.6151 8.14953 21.6565 8.08344 21.7118 8.03008L23.3558 6.43508C23.4195 6.37338 23.4646 6.29497 23.4858 6.20884C23.507 6.1227 23.5036 6.03233 23.4758 5.94808C23.4473 5.86343 23.3958 5.78839 23.3271 5.73134C23.2584 5.67429 23.1752 5.6375 23.0868 5.62508L20.8238 5.29808C20.7464 5.28709 20.6729 5.25752 20.6095 5.21189C20.5461 5.16625 20.4947 5.10593 20.4598 5.03608L19.4498 3.00608C19.4094 2.92562 19.3474 2.85801 19.2707 2.81084C19.1941 2.76367 19.1058 2.73882 19.0158 2.73908" stroke="#006BFF" stroke-width="1.25" stroke-linecap="round" stroke-linejoin="round"/>
<path d="M17.2787 23.7401C16.6518 23.0225 15.8786 22.4473 15.0111 22.0532C14.1435 21.6591 13.2016 21.4552 12.2487 21.4552C11.2959 21.4552 10.354 21.6591 9.48643 22.0532C8.61886 22.4473 7.84565 23.0225 7.21875 23.7401" stroke="#006BFF" stroke-width="1.25" stroke-linecap="round" stroke-linejoin="round"/>
<path d="M8.69476 13.7371C9.66212 14.7388 10.9115 15.4223 12.2768 15.6967C13.6421 15.9711 15.0585 15.8233 16.3378 15.2731" stroke="#006BFF" stroke-width="1.25" stroke-linecap="round" stroke-linejoin="round"/>
<path d="M8.12476 15.8311C8.12476 16.9251 8.55935 17.9743 9.33294 18.7479C10.1065 19.5215 11.1557 19.9561 12.2498 19.9561C13.3438 19.9561 14.393 19.5215 15.1666 18.7479C15.9402 17.9743 16.3748 16.9251 16.3748 15.8311C16.3748 14.7371 15.9402 13.6879 15.1666 12.9143C14.393 12.1407 13.3438 11.7061 12.2498 11.7061C11.1557 11.7061 10.1065 12.1407 9.33294 12.9143C8.55935 13.6879 8.12476 14.7371 8.12476 15.8311V15.8311Z" stroke="#006BFF" stroke-width="1.25" stroke-linecap="round" stroke-linejoin="round"/>
</svg>
