<svg width="24" height="24" viewBox="0 0 24 24" fill="none" xmlns="http://www.w3.org/2000/svg">
<path d="M11.566 1.01703C11.6065 0.936667 11.6685 0.869126 11.7452 0.821935C11.8218 0.774744 11.91 0.749756 12 0.749756C12.09 0.749756 12.1782 0.774744 12.2549 0.821935C12.3315 0.869126 12.3935 0.936667 12.434 1.01703L13.443 3.05103C13.4779 3.12076 13.5291 3.181 13.5923 3.22663C13.6555 3.27225 13.7289 3.3019 13.806 3.31303L16.07 3.64003C16.1584 3.65245 16.2417 3.68925 16.3104 3.7463C16.3791 3.80334 16.4305 3.87839 16.459 3.96303C16.4869 4.04735 16.4904 4.13784 16.4689 4.22403C16.4475 4.31022 16.4021 4.38858 16.338 4.45003L14.7 6.04403C14.6447 6.0974 14.6032 6.16345 14.5792 6.23646C14.5551 6.30947 14.5492 6.38724 14.562 6.46303L14.95 8.71003C14.9647 8.79794 14.9542 8.8882 14.9199 8.97044C14.8856 9.05269 14.8288 9.1236 14.756 9.17503C14.6827 9.22737 14.5963 9.25834 14.5065 9.26452C14.4166 9.2707 14.3268 9.25184 14.247 9.21003L12.226 8.15603C12.1564 8.11908 12.0788 8.09976 12 8.09976C11.9212 8.09976 11.8436 8.11908 11.774 8.15603L9.75801 9.21003C9.67823 9.25184 9.58842 9.2707 9.49856 9.26452C9.4087 9.25834 9.32232 9.22737 9.24901 9.17503C9.17623 9.1236 9.11943 9.05269 9.08511 8.97044C9.0508 8.8882 9.04037 8.79794 9.05501 8.71003L9.44301 6.46303C9.45579 6.38724 9.4499 6.30947 9.42585 6.23646C9.4018 6.16345 9.36033 6.0974 9.30501 6.04403L7.66201 4.45003C7.59789 4.38858 7.5525 4.31022 7.53108 4.22403C7.50967 4.13784 7.51311 4.04735 7.54101 3.96303C7.56948 3.87839 7.62094 3.80334 7.68965 3.7463C7.75835 3.68925 7.84158 3.65245 7.93001 3.64003L10.194 3.31303C10.2712 3.3019 10.3445 3.27225 10.4077 3.22663C10.4709 3.181 10.5221 3.12076 10.557 3.05103L11.566 1.01703Z" stroke="#006BFF" stroke-width="1.25" stroke-linecap="round" stroke-linejoin="round"/>
<path d="M6.32199 10.1L5.45899 9.65002C5.38906 9.61356 5.31136 9.59453 5.23249 9.59453C5.15363 9.59453 5.07593 9.61356 5.00599 9.65002L2.99099 10.7C2.91106 10.7417 2.82118 10.7606 2.73122 10.7546C2.64126 10.7486 2.55469 10.718 2.48099 10.666C2.40822 10.6144 2.35151 10.5433 2.31736 10.4608C2.28322 10.3784 2.27304 10.288 2.28799 10.2L2.67499 7.95402C2.68807 7.8783 2.68242 7.80054 2.65854 7.7275C2.63466 7.65447 2.59327 7.58839 2.53799 7.53502L0.893992 5.94402C0.830246 5.88233 0.785177 5.80391 0.763952 5.71778C0.742728 5.63164 0.746207 5.54127 0.773992 5.45702C0.802458 5.37238 0.853924 5.29733 0.922628 5.24028C0.991332 5.18324 1.07456 5.14644 1.16299 5.13402L3.42599 4.80702C3.50333 4.79604 3.57685 4.76646 3.64025 4.72083C3.70364 4.6752 3.75503 4.61487 3.78999 4.54502L4.79999 2.51102C4.84035 2.43056 4.90234 2.36295 4.97901 2.31578C5.05568 2.26862 5.14398 2.24377 5.23399 2.24402" stroke="#006BFF" stroke-width="1.25" stroke-linecap="round" stroke-linejoin="round"/>
<path d="M17.678 10.1L18.541 9.64902C18.6109 9.61257 18.6886 9.59353 18.7675 9.59353C18.8463 9.59353 18.924 9.61257 18.994 9.64902L21.009 10.7C21.0889 10.7417 21.1788 10.7606 21.2688 10.7546C21.3587 10.7486 21.4453 10.718 21.519 10.666C21.5917 10.6144 21.6485 10.5433 21.6826 10.4608C21.7167 10.3784 21.7269 10.288 21.712 10.2L21.325 7.95402C21.3119 7.8783 21.3176 7.80054 21.3414 7.7275C21.3653 7.65447 21.4067 7.58839 21.462 7.53502L23.106 5.94002C23.1697 5.87833 23.2148 5.79991 23.236 5.71378C23.2572 5.62764 23.2538 5.53727 23.226 5.45302C23.1975 5.36838 23.146 5.29333 23.0773 5.23628C23.0086 5.17924 22.9254 5.14244 22.837 5.13002L20.574 4.80302C20.4966 4.79204 20.4231 4.76246 20.3597 4.71683C20.2963 4.6712 20.2449 4.61087 20.21 4.54102L19.2 2.51102C19.1596 2.43056 19.0976 2.36295 19.021 2.31578C18.9443 2.26862 18.856 2.24377 18.766 2.24402" stroke="#006BFF" stroke-width="1.25" stroke-linecap="round" stroke-linejoin="round"/>
<path d="M7.87697 15.447V16.447C7.91556 17.5982 7.61662 18.7356 7.01697 19.719" stroke="#006BFF" stroke-width="1.25" stroke-linecap="round" stroke-linejoin="round"/>
<path d="M16.124 15.447V16.447C16.0851 17.5981 16.3837 18.7354 16.983 19.719" stroke="#006BFF" stroke-width="1.25" stroke-linecap="round" stroke-linejoin="round"/>
<path d="M7.88794 15.665C8.66906 15.6596 9.44002 15.4874 10.1492 15.1599C10.8584 14.8324 11.4894 14.3572 11.9999 13.766C12.5104 14.3573 13.1414 14.8328 13.8506 15.1605C14.5597 15.4882 15.3307 15.6605 16.1119 15.666" stroke="#006BFF" stroke-width="1.25" stroke-linecap="round" stroke-linejoin="round"/>
<path d="M7.875 15.3361C7.875 16.4301 8.3096 17.4793 9.08318 18.2529C9.85677 19.0265 10.906 19.4611 12 19.4611C13.094 19.4611 14.1432 19.0265 14.9168 18.2529C15.6904 17.4793 16.125 16.4301 16.125 15.3361C16.125 14.242 15.6904 13.1928 14.9168 12.4192C14.1432 11.6457 13.094 11.2111 12 11.2111C10.906 11.2111 9.85677 11.6457 9.08318 12.4192C8.3096 13.1928 7.875 14.242 7.875 15.3361V15.3361Z" stroke="#006BFF" stroke-width="1.25" stroke-linecap="round" stroke-linejoin="round"/>
<path d="M17.047 23.2501C16.3517 22.4609 15.482 21.8446 14.507 21.4501L12 23.2111L9.49301 21.4541C8.52328 21.8455 7.65734 22.4561 6.96301 23.2381" stroke="#006BFF" stroke-width="1.25" stroke-linecap="round" stroke-linejoin="round"/>
</svg>
