<svg width="24" height="24" viewBox="0 0 24 24" fill="none" xmlns="http://www.w3.org/2000/svg">
<path d="M17.505 15.862C17.7073 16.903 18.132 17.8881 18.75 18.75H0.75C0.75 18.75 2.25 16.421 2.25 10.5C2.25 8.51088 3.04018 6.60322 4.4467 5.1967C5.85322 3.79018 7.76088 3 9.75 3V0.75" stroke="#006BFF" stroke-width="1.25" stroke-linecap="round" stroke-linejoin="round"/>
<path d="M11.25 6.75C11.25 8.3413 11.8821 9.86742 13.0074 10.9926C14.1326 12.1179 15.6587 12.75 17.25 12.75C18.8413 12.75 20.3674 12.1179 21.4926 10.9926C22.6179 9.86742 23.25 8.3413 23.25 6.75C23.25 5.1587 22.6179 3.63258 21.4926 2.50736C20.3674 1.38214 18.8413 0.75 17.25 0.75C15.6587 0.75 14.1326 1.38214 13.0074 2.50736C11.8821 3.63258 11.25 5.1587 11.25 6.75V6.75Z" stroke="#006BFF" stroke-width="1.25" stroke-linecap="round" stroke-linejoin="round"/>
<path d="M17.25 4.5V8.25H19.5" stroke="#006BFF" stroke-width="1.25" stroke-linecap="round" stroke-linejoin="round"/>
<path d="M7.74799 21.75C7.875 22.1827 8.13875 22.5626 8.49974 22.8328C8.86073 23.1031 9.29954 23.2492 9.75049 23.2492C10.2014 23.2492 10.6402 23.1031 11.0012 22.8328C11.3622 22.5626 11.626 22.1827 11.753 21.75" stroke="#006BFF" stroke-width="1.25" stroke-linecap="round" stroke-linejoin="round"/>
</svg>
