<svg width="22" height="24" viewBox="0 0 22 24" fill="none" xmlns="http://www.w3.org/2000/svg">
<g clip-path="url(#clip0_7283_110897)">
<path d="M4.172 7.0474C3.44764 7.0474 2.75295 7.34644 2.24075 7.87872C1.72855 8.41101 1.4408 9.13294 1.4408 9.88571V19.8198C1.4408 20.5725 1.72855 21.2945 2.24075 21.8268C2.75295 22.359 3.44764 22.6581 4.172 22.6581H17.828C18.5524 22.6581 19.2471 22.359 19.7593 21.8268C20.2715 21.2945 20.5592 20.5725 20.5592 19.8198V18.4006V11.3049V9.88571C20.5592 9.13294 20.2715 8.41101 19.7593 7.87872C19.2471 7.34644 18.5524 7.0474 17.828 7.0474M4.172 7.0474H17.828M4.172 7.0474L13.8753 2.00586C14.0357 1.92243 14.2104 1.87265 14.3893 1.85938C14.5682 1.8461 14.7479 1.86959 14.9181 1.9285C15.0883 1.98741 15.2456 2.08058 15.3811 2.2027C15.5167 2.32482 15.6277 2.47349 15.7079 2.64022L17.828 7.0474" stroke="#006BFF" stroke-width="1.25" stroke-linecap="round" stroke-linejoin="round"/>
<path d="M19.4212 18.6434C19.723 18.6434 20.0125 18.4939 20.2259 18.2277C20.4393 17.9616 20.5592 17.6006 20.5592 17.2242V12.9668C20.5592 12.5904 20.4393 12.2294 20.2259 11.9633C20.0125 11.6971 19.723 11.5476 19.4212 11.5476H16.5762C15.8217 11.5476 15.098 11.9214 14.5645 12.5868C14.0309 13.2521 13.7312 14.1545 13.7312 15.0955C13.7312 16.0364 14.0309 16.9389 14.5645 17.6042C15.098 18.2696 15.8217 18.6434 16.5762 18.6434H19.4212Z" stroke="#006BFF" stroke-width="1.25" stroke-linejoin="round"/>
<path d="M17.1452 14.498C17.2128 14.498 17.2788 14.5188 17.335 14.5579C17.3911 14.5969 17.4349 14.6524 17.4607 14.7172C17.4866 14.7821 17.4934 14.8534 17.4803 14.9222C17.4671 14.9911 17.4347 15.0543 17.3869 15.104C17.3392 15.1535 17.2783 15.1873 17.2121 15.2009C17.1458 15.2146 17.0772 15.2075 17.0148 15.1806C16.9524 15.1538 16.899 15.1083 16.8615 15.05C16.8239 14.9916 16.8038 14.923 16.8038 14.8528C16.8038 14.7587 16.8398 14.6684 16.9038 14.6019C16.9679 14.5354 17.0547 14.498 17.1452 14.498" stroke="#006BFF" stroke-width="1.25" stroke-linecap="round" stroke-linejoin="round"/>
</g>
<defs>
<clipPath id="clip0_7283_110897">
<rect width="21.8497" height="22.7064" fill="white" transform="translate(0.0751953 0.862366)"/>
</clipPath>
</defs>
</svg>
