<svg width="24" height="25" viewBox="0 0 24 25" fill="none" xmlns="http://www.w3.org/2000/svg">
<path d="M20.29 14.5848L15.13 15.5708" stroke="#006BFF" stroke-width="1.25" stroke-linecap="round" stroke-linejoin="round"/>
<path d="M14.416 8.72282L10.948 9.86882C10.6797 9.95717 10.3882 9.94373 10.1291 9.83106C9.87 9.71838 9.6614 9.51435 9.54302 9.25782C9.41542 8.98401 9.39927 8.67131 9.49798 8.3858C9.5967 8.1003 9.80254 7.86435 10.072 7.72782L13.431 6.03882C13.7173 5.89444 14.0302 5.81035 14.3503 5.79178C14.6704 5.7732 14.9909 5.82053 15.292 5.93082L20.265 7.74982" stroke="#006BFF" stroke-width="1.25" stroke-linecap="round" stroke-linejoin="round"/>
<path d="M3.685 14.5928H6.13L9.642 18.5288C9.82085 18.7361 10.0588 18.8837 10.3239 18.9518C10.5891 19.0199 10.8687 19.0054 11.1253 18.91C11.382 18.8147 11.6033 18.6432 11.7596 18.4184C11.916 18.1937 11.9998 17.9266 12 17.6528V17.0378L12.175 17.1078C12.4262 17.2083 12.6982 17.2457 12.9673 17.2167C13.2363 17.1878 13.4941 17.0933 13.7182 16.9417C13.9423 16.79 14.1258 16.5858 14.2526 16.3468C14.3795 16.1078 14.4459 15.8414 14.446 15.5708H14.935C15.2075 15.5706 15.4745 15.4946 15.7062 15.3513C15.9379 15.208 16.1252 15.003 16.247 14.7593C16.3689 14.5156 16.4205 14.2428 16.3961 13.9715C16.3717 13.7001 16.2723 13.4409 16.109 13.2228L12.97 9.20081" stroke="#006BFF" stroke-width="1.25" stroke-linecap="round" stroke-linejoin="round"/>
<path d="M10.583 7.46981L10.225 7.17481C9.86425 6.90916 9.428 6.76585 8.98 6.76581C8.71305 6.76571 8.44858 6.81698 8.201 6.91681L3.75 8.69681" stroke="#006BFF" stroke-width="1.25" stroke-linecap="round" stroke-linejoin="round"/>
<path d="M0.75 6.99485H2.75C3.00393 6.98427 3.25172 7.07471 3.43913 7.24638C3.62654 7.41805 3.73832 7.65697 3.75 7.91085V14.3279C3.73832 14.5818 3.62657 14.8208 3.43919 14.9927C3.25181 15.1645 3.00403 15.2552 2.75 15.2449H0.75" stroke="#006BFF" stroke-width="1.25" stroke-linecap="round" stroke-linejoin="round"/>
<path d="M23.25 15.2449H21.25C20.996 15.2552 20.7482 15.1645 20.5608 14.9927C20.3734 14.8208 20.2617 14.5818 20.25 14.3279V7.91085C20.2617 7.65697 20.3735 7.41805 20.5609 7.24638C20.7483 7.07471 20.9961 6.98427 21.25 6.99485H23.25" stroke="#006BFF" stroke-width="1.25" stroke-linecap="round" stroke-linejoin="round"/>
<path d="M12 17.0378L11.022 16.0598" stroke="#006BFF" stroke-width="1.25" stroke-linecap="round" stroke-linejoin="round"/>
<path d="M14.446 15.5708L12.978 14.1028" stroke="#006BFF" stroke-width="1.25" stroke-linecap="round" stroke-linejoin="round"/>
</svg>
