<svg width="24" height="24" viewBox="0 0 24 24" fill="none" xmlns="http://www.w3.org/2000/svg">
<path d="M0.73468 22.7755H22.7755" stroke="#006BFF" stroke-width="1.25" stroke-linecap="round" stroke-linejoin="round"/>
<path d="M5.87751 16.8979H2.93873C2.74388 16.8979 2.55701 16.9754 2.41923 17.1131C2.28145 17.2509 2.20404 17.4378 2.20404 17.6326V22.7755H6.6122V17.6326C6.6122 17.4378 6.5348 17.2509 6.39702 17.1131C6.25923 16.9754 6.07236 16.8979 5.87751 16.8979Z" stroke="#006BFF" stroke-width="1.25" stroke-linecap="round" stroke-linejoin="round"/>
<path d="M13.2245 9.55103H10.2857C10.0909 9.55103 9.90399 9.62843 9.76621 9.76621C9.62843 9.90399 9.55103 10.0909 9.55103 10.2857V22.7755H13.9592V10.2857C13.9592 10.0909 13.8818 9.90399 13.744 9.76621C13.6062 9.62843 13.4193 9.55103 13.2245 9.55103Z" stroke="#006BFF" stroke-width="1.25" stroke-linecap="round" stroke-linejoin="round"/>
<path d="M20.5714 12.4898H17.6326C17.4378 12.4898 17.2509 12.5672 17.1131 12.705C16.9754 12.8428 16.8979 13.0296 16.8979 13.2245V22.7755H21.3061V13.2245C21.3061 13.0296 21.2287 12.8428 21.0909 12.705C20.9531 12.5672 20.7663 12.4898 20.5714 12.4898Z" stroke="#006BFF" stroke-width="1.25" stroke-linecap="round" stroke-linejoin="round"/>
<path d="M22.7755 5.14284V0.73468H18.3673" stroke="#006BFF" stroke-width="1.25" stroke-linecap="round" stroke-linejoin="round"/>
<path d="M22.7755 0.73468L17.8285 5.68162C17.5472 5.96302 17.1949 6.16297 16.8091 6.26025C16.4233 6.35752 16.0183 6.34849 15.6372 6.23411L10.0447 4.73925C9.67111 4.63954 9.27787 4.63982 8.90443 4.74006C8.53098 4.8403 8.19046 5.03697 7.91702 5.31035L2.20404 11.0233" stroke="#006BFF" stroke-width="1.25" stroke-linecap="round" stroke-linejoin="round"/>
</svg>
