<svg width="24" height="25" viewBox="0 0 24 25" fill="none" xmlns="http://www.w3.org/2000/svg">
<path d="M2.25 3.99481C2.25 4.79046 2.56607 5.55352 3.12868 6.11613C3.69129 6.67874 4.45435 6.99481 5.25 6.99481C6.04565 6.99481 6.80871 6.67874 7.37132 6.11613C7.93393 5.55352 8.25 4.79046 8.25 3.99481C8.25 3.19916 7.93393 2.4361 7.37132 1.87349C6.80871 1.31088 6.04565 0.994812 5.25 0.994812C4.45435 0.994812 3.69129 1.31088 3.12868 1.87349C2.56607 2.4361 2.25 3.19916 2.25 3.99481V3.99481Z" stroke="#006BFF" stroke-width="1.25" stroke-linecap="round" stroke-linejoin="round"/>
<path d="M9.75 14.4948V12.9948C9.75 11.8013 9.27589 10.6567 8.43198 9.81283C7.58807 8.96892 6.44347 8.49481 5.25 8.49481C4.05653 8.49481 2.91193 8.96892 2.06802 9.81283C1.22411 10.6567 0.75 11.8013 0.75 12.9948V15.9948H2.25L3 23.4948H7.5L8.175 16.7448" stroke="#006BFF" stroke-width="1.25" stroke-linecap="round" stroke-linejoin="round"/>
<path d="M12.75 12.9948H21.75C22.1478 12.9948 22.5294 12.8368 22.8107 12.5555C23.092 12.2742 23.25 11.8926 23.25 11.4948V2.49481C23.25 2.09699 23.092 1.71546 22.8107 1.43415C22.5294 1.15285 22.1478 0.994812 21.75 0.994812H11.25" stroke="#006BFF" stroke-width="1.25" stroke-linecap="round" stroke-linejoin="round"/>
<path d="M20.25 9.99481H12.75" stroke="#006BFF" stroke-width="1.25" stroke-linecap="round" stroke-linejoin="round"/>
<path d="M10.626 18.6198C10.626 19.316 10.9026 19.9837 11.3949 20.476C11.8872 20.9683 12.5548 21.2448 13.251 21.2448C13.9472 21.2448 14.6149 20.9683 15.1072 20.476C15.5995 19.9837 15.876 19.316 15.876 18.6198C15.876 17.9236 15.5995 17.2559 15.1072 16.7637C14.6149 16.2714 13.9472 15.9948 13.251 15.9948C12.5548 15.9948 11.8872 16.2714 11.3949 16.7637C10.9026 17.2559 10.626 17.9236 10.626 18.6198V18.6198Z" stroke="#006BFF" stroke-width="1.25" stroke-linecap="round" stroke-linejoin="round"/>
<path d="M16.5 23.4948C16.0992 23.0243 15.6011 22.6464 15.0399 22.3872C14.4788 22.1281 13.8681 21.9938 13.25 21.9938C12.6319 21.9938 12.0212 22.1281 11.4601 22.3872C10.8989 22.6464 10.4008 23.0243 10 23.4948" stroke="#006BFF" stroke-width="1.25" stroke-linecap="round" stroke-linejoin="round"/>
<path d="M17.376 18.6198C17.376 19.316 17.6526 19.9837 18.1449 20.476C18.6372 20.9683 19.3048 21.2448 20.001 21.2448C20.6972 21.2448 21.3649 20.9683 21.8572 20.476C22.3495 19.9837 22.626 19.316 22.626 18.6198C22.626 17.9236 22.3495 17.2559 21.8572 16.7637C21.3649 16.2714 20.6972 15.9948 20.001 15.9948C19.3048 15.9948 18.6372 16.2714 18.1449 16.7637C17.6526 17.2559 17.376 17.9236 17.376 18.6198V18.6198Z" stroke="#006BFF" stroke-width="1.25" stroke-linecap="round" stroke-linejoin="round"/>
<path d="M23.25 23.4948C22.8492 23.0243 22.3511 22.6464 21.7899 22.3872C21.2288 22.1281 20.6181 21.9938 20 21.9938C19.3819 21.9938 18.7712 22.1281 18.2101 22.3872C17.6489 22.6464 17.1508 23.0243 16.75 23.4948" stroke="#006BFF" stroke-width="1.25" stroke-linecap="round" stroke-linejoin="round"/>
<path d="M18.75 9.99481V3.99481" stroke="#006BFF" stroke-width="1.25" stroke-linecap="round" stroke-linejoin="round"/>
<path d="M15.75 9.99481V6.24481" stroke="#006BFF" stroke-width="1.25" stroke-linecap="round" stroke-linejoin="round"/>
</svg>
