<svg width="24" height="24" viewBox="0 0 24 24" fill="none" xmlns="http://www.w3.org/2000/svg">
<path d="M1.87399 17.625C1.87399 18.3212 2.15055 18.9889 2.64284 19.4812C3.13512 19.9734 3.8028 20.25 4.49899 20.25C5.19519 20.25 5.86287 19.9734 6.35515 19.4812C6.84743 18.9889 7.12399 18.3212 7.12399 17.625C7.12399 16.9288 6.84743 16.2611 6.35515 15.7688C5.86287 15.2766 5.19519 15 4.49899 15C3.8028 15 3.13512 15.2766 2.64284 15.7688C2.15055 16.2611 1.87399 16.9288 1.87399 17.625V17.625Z" stroke="#006BFF" stroke-width="1.25" stroke-linecap="round" stroke-linejoin="round"/>
<path d="M8.24899 23.25C7.8865 22.5703 7.34612 22.002 6.6856 21.6057C6.02508 21.2093 5.26928 21 4.49899 21C3.72871 21 2.9729 21.2093 2.31239 21.6057C1.65187 22.002 1.11148 22.5703 0.748993 23.25" stroke="#006BFF" stroke-width="1.25" stroke-linecap="round" stroke-linejoin="round"/>
<path d="M16.874 17.625C16.874 17.9697 16.9419 18.3111 17.0738 18.6295C17.2057 18.948 17.3991 19.2374 17.6428 19.4812C17.8866 19.7249 18.176 19.9183 18.4944 20.0502C18.8129 20.1821 19.1543 20.25 19.499 20.25C19.8437 20.25 20.1851 20.1821 20.5035 20.0502C20.822 19.9183 21.1114 19.7249 21.3551 19.4812C21.5989 19.2374 21.7923 18.948 21.9242 18.6295C22.0561 18.3111 22.124 17.9697 22.124 17.625C22.124 17.2803 22.0561 16.9389 21.9242 16.6205C21.7923 16.302 21.5989 16.0126 21.3551 15.7688C21.1114 15.5251 20.822 15.3317 20.5035 15.1998C20.1851 15.0679 19.8437 15 19.499 15C19.1543 15 18.8129 15.0679 18.4944 15.1998C18.176 15.3317 17.8866 15.5251 17.6428 15.7688C17.3991 16.0126 17.2057 16.302 17.0738 16.6205C16.9419 16.9389 16.874 17.2803 16.874 17.625V17.625Z" stroke="#006BFF" stroke-width="1.25" stroke-linecap="round" stroke-linejoin="round"/>
<path d="M23.249 23.25C22.8865 22.5703 22.3461 22.002 21.6856 21.6057C21.0251 21.2093 20.2693 21 19.499 21C18.7287 21 17.9729 21.2093 17.3124 21.6057C16.6519 22.002 16.1115 22.5703 15.749 23.25" stroke="#006BFF" stroke-width="1.25" stroke-linecap="round" stroke-linejoin="round"/>
<path d="M9.37399 3.375C9.37399 3.71972 9.44189 4.06106 9.57381 4.37954C9.70573 4.69802 9.89908 4.9874 10.1428 5.23116C10.3866 5.47491 10.676 5.66827 10.9944 5.80018C11.3129 5.9321 11.6543 6 11.999 6C12.3437 6 12.6851 5.9321 13.0035 5.80018C13.322 5.66827 13.6114 5.47491 13.8551 5.23116C14.0989 4.9874 14.2923 4.69802 14.4242 4.37954C14.5561 4.06106 14.624 3.71972 14.624 3.375C14.624 3.03028 14.5561 2.68894 14.4242 2.37046C14.2923 2.05198 14.0989 1.7626 13.8551 1.51884C13.6114 1.27509 13.322 1.08173 13.0035 0.949816C12.6851 0.817898 12.3437 0.75 11.999 0.75C11.6543 0.75 11.3129 0.817898 10.9944 0.949816C10.676 1.08173 10.3866 1.27509 10.1428 1.51884C9.89908 1.7626 9.70573 2.05198 9.57381 2.37046C9.44189 2.68894 9.37399 3.03028 9.37399 3.375Z" stroke="#006BFF" stroke-width="1.25" stroke-linecap="round" stroke-linejoin="round"/>
<path d="M15.248 8.25002C14.8472 7.77947 14.3491 7.40155 13.7879 7.1424C13.2268 6.88324 12.6161 6.74902 11.998 6.74902C11.3799 6.74902 10.7692 6.88324 10.208 7.1424C9.64692 7.40155 9.14875 7.77947 8.74799 8.25002" stroke="#006BFF" stroke-width="1.25" stroke-linecap="round" stroke-linejoin="round"/>
<path d="M9.04999 19.707C10.9652 20.4371 13.0832 20.4307 14.994 19.689" stroke="#006BFF" stroke-width="1.25" stroke-linecap="round" stroke-linejoin="round"/>
<path d="M6.34799 6C5.52702 6.7689 4.87266 7.69816 4.42543 8.73023C3.9782 9.7623 3.74763 10.8752 3.74799 12C3.74799 12.253 3.76299 12.5 3.78599 12.75" stroke="#006BFF" stroke-width="1.25" stroke-linecap="round" stroke-linejoin="round"/>
<path d="M20.211 12.75C20.233 12.502 20.249 12.25 20.249 12C20.2495 10.8752 20.019 9.76221 19.5718 8.73012C19.1245 7.69802 18.4701 6.76879 17.649 6" stroke="#006BFF" stroke-width="1.25" stroke-linecap="round" stroke-linejoin="round"/>
</svg>
