<svg width="24" height="25" viewBox="0 0 24 25" fill="none" xmlns="http://www.w3.org/2000/svg">
<path d="M8.25 12.2688C9.27545 13.2031 10.6127 13.721 12 13.721C13.3873 13.721 14.7246 13.2031 15.75 12.2688" stroke="#006BFF" stroke-width="1.25" stroke-linecap="round" stroke-linejoin="round"/>
<path d="M9.75 7.74481V9.24481" stroke="#006BFF" stroke-width="1.25" stroke-linecap="round" stroke-linejoin="round"/>
<path d="M14.25 7.74481V9.24481" stroke="#006BFF" stroke-width="1.25" stroke-linecap="round" stroke-linejoin="round"/>
<path d="M3 13.7448V5.49481C3 5.09699 3.15804 4.71546 3.43934 4.43415C3.72065 4.15285 4.10218 3.99481 4.5 3.99481H19.5C19.8978 3.99481 20.2794 4.15285 20.5607 4.43415C20.842 4.71546 21 5.09699 21 5.49481V13.7448" stroke="#006BFF" stroke-width="1.25" stroke-linecap="round" stroke-linejoin="round"/>
<path d="M0.75 16.7448C0.75 17.7394 1.14509 18.6932 1.84835 19.3965C2.55161 20.0997 3.50544 20.4948 4.5 20.4948H19.5C20.4946 20.4948 21.4484 20.0997 22.1517 19.3965C22.8549 18.6932 23.25 17.7394 23.25 16.7448H0.75Z" stroke="#006BFF" stroke-width="1.25" stroke-linecap="round" stroke-linejoin="round"/>
</svg>
