<svg width="24" height="24" viewBox="0 0 24 24" fill="none" xmlns="http://www.w3.org/2000/svg">
<path d="M2.25003 3.92296V11.537C2.25005 13.9436 2.97935 16.2937 4.34179 18.2776C5.70423 20.2615 7.63585 21.7859 9.88203 22.65L10.923 23.05C11.6163 23.3166 12.3838 23.3166 13.077 23.05L14.118 22.65C16.3642 21.7859 18.2958 20.2615 19.6583 18.2776C21.0207 16.2937 21.75 13.9436 21.75 11.537V3.92296C21.7519 3.63644 21.671 3.35547 21.5171 3.11384C21.3631 2.87222 21.1426 2.68022 20.882 2.56096C18.0819 1.33875 15.0552 0.721617 12 0.749957C8.94489 0.721617 5.9182 1.33875 3.11803 2.56096C2.85751 2.68022 2.63699 2.87222 2.48301 3.11384C2.32902 3.35547 2.24812 3.63644 2.25003 3.92296V3.92296Z" stroke="#006BFF" stroke-width="1.25" stroke-linecap="round" stroke-linejoin="round"/>
<path d="M7.5 9.75H16.5V17.25H7.5V9.75Z" stroke="#006BFF" stroke-width="1.25" stroke-linecap="round" stroke-linejoin="round"/>
<path d="M12 5.25C11.2044 5.25 10.4413 5.56607 9.87868 6.12868C9.31607 6.69129 9 7.45435 9 8.25V9.75H15V8.25C15 7.45435 14.6839 6.69129 14.1213 6.12868C13.5587 5.56607 12.7956 5.25 12 5.25Z" stroke="#006BFF" stroke-width="1.25" stroke-linecap="round" stroke-linejoin="round"/>
<path d="M12 13.1539C12.0742 13.1539 12.1467 13.1759 12.2083 13.2171C12.27 13.2583 12.3181 13.3169 12.3465 13.3854C12.3748 13.4539 12.3823 13.5293 12.3678 13.6021C12.3533 13.6748 12.3176 13.7417 12.2652 13.7941C12.2127 13.8465 12.1459 13.8823 12.0732 13.8967C12.0004 13.9112 11.925 13.9038 11.8565 13.8754C11.788 13.847 11.7294 13.7989 11.6882 13.7373C11.647 13.6756 11.625 13.6031 11.625 13.5289C11.625 13.4295 11.6645 13.3341 11.7348 13.2638C11.8052 13.1934 11.9005 13.1539 12 13.1539" stroke="#006BFF" stroke-width="1.25" stroke-linecap="round" stroke-linejoin="round"/>
</svg>
