<svg width="24" height="24" viewBox="0 0 24 24" fill="none" xmlns="http://www.w3.org/2000/svg">
<path d="M21.763 8.25293V2.25293C21.763 1.8551 21.605 1.47357 21.3237 1.19227C21.0424 0.910965 20.6608 0.75293 20.263 0.75293H2.263C1.86518 0.75293 1.48364 0.910965 1.20234 1.19227C0.921036 1.47357 0.763 1.8551 0.763 2.25293V18.7529C0.763 19.1508 0.921036 19.5323 1.20234 19.8136C1.48364 20.0949 1.86518 20.2529 2.263 20.2529H8.263" stroke="#006BFF" stroke-width="1.25" stroke-linecap="round" stroke-linejoin="round"/>
<path d="M0.763 5.25293H21.763" stroke="#006BFF" stroke-width="1.25" stroke-linecap="round" stroke-linejoin="round"/>
<path d="M11.26 17.2529C11.26 18.0409 11.4152 18.8211 11.7167 19.549C12.0183 20.277 12.4602 20.9384 13.0174 21.4956C13.5745 22.0527 14.236 22.4947 14.9639 22.7962C15.6919 23.0977 16.4721 23.2529 17.26 23.2529C18.0479 23.2529 18.8282 23.0977 19.5561 22.7962C20.2841 22.4947 20.9455 22.0527 21.5026 21.4956C22.0598 20.9384 22.5018 20.277 22.8033 19.549C23.1048 18.8211 23.26 18.0409 23.26 17.2529C23.26 16.465 23.1048 15.6848 22.8033 14.9568C22.5018 14.2289 22.0598 13.5674 21.5026 13.0103C20.9455 12.4531 20.2841 12.0112 19.5561 11.7097C18.8282 11.4081 18.0479 11.2529 17.26 11.2529C16.4721 11.2529 15.6919 11.4081 14.9639 11.7097C14.236 12.0112 13.5745 12.4531 13.0174 13.0103C12.4602 13.5674 12.0183 14.2289 11.7167 14.9568C11.4152 15.6848 11.26 16.465 11.26 17.2529V17.2529Z" stroke="#006BFF" stroke-width="1.25" stroke-linecap="round" stroke-linejoin="round"/>
<path d="M19.912 17.2529H17.26V14.6019" stroke="#006BFF" stroke-width="1.25" stroke-linecap="round" stroke-linejoin="round"/>
</svg>
