<svg width="25" height="25" viewBox="0 0 25 25" fill="none" xmlns="http://www.w3.org/2000/svg">
<path d="M3.52019 15.3234C3.98247 16.4112 4.65447 17.3972 5.49782 18.2252C6.34117 19.0533 7.33936 19.7071 8.43538 20.1493C9.53141 20.5916 10.7038 20.8137 11.8857 20.8028C13.0675 20.792 14.2357 20.5485 15.3234 20.0862C16.4111 19.6239 17.3972 18.952 18.2252 18.1086C19.0532 17.2653 19.7071 16.2671 20.1493 15.171C20.5916 14.075 20.8137 12.9026 20.8028 11.7208C20.792 10.5389 20.5485 9.37076 20.0862 8.28302C19.6239 7.19528 18.9519 6.20925 18.1086 5.38121C17.2652 4.55318 16.267 3.89936 15.171 3.45709C14.075 3.01483 12.9026 2.79277 11.7207 2.8036C10.5389 2.81443 9.37075 3.05793 8.28301 3.52021C7.19527 3.98249 6.20923 4.65449 5.3812 5.49784C4.55316 6.34119 3.89935 7.33937 3.45708 8.4354C3.01481 9.53143 2.79275 10.7038 2.80358 11.8857C2.81441 13.0675 3.05792 14.2357 3.52019 15.3234V15.3234Z" stroke="#006BFF" stroke-width="1.25" stroke-linecap="round" stroke-linejoin="round"/>
<path d="M18.1658 18.1686L23.8028 23.8036" stroke="#006BFF" stroke-width="1.25" stroke-linecap="round" stroke-linejoin="round"/>
<path d="M8.80273 8.80359C8.80273 9.59924 9.1188 10.3623 9.68141 10.9249C10.244 11.4875 11.0071 11.8036 11.8027 11.8036C12.5984 11.8036 13.3614 11.4875 13.9241 10.9249C14.4867 10.3623 14.8027 9.59924 14.8027 8.80359C14.8027 8.00794 14.4867 7.24488 13.9241 6.68227C13.3614 6.11966 12.5984 5.80359 11.8027 5.80359C11.0071 5.80359 10.244 6.11966 9.68141 6.68227C9.1188 7.24488 8.80273 8.00794 8.80273 8.80359V8.80359Z" stroke="#006BFF" stroke-width="1.25" stroke-linecap="round" stroke-linejoin="round"/>
<path d="M11.8027 13.3036V17.8036" stroke="#006BFF" stroke-width="1.25" stroke-linecap="round" stroke-linejoin="round"/>
<path d="M16.0269 16.3035C15.7212 15.4268 15.1502 14.667 14.3933 14.1293C13.6363 13.5916 12.7309 13.3027 11.8024 13.3027C10.8739 13.3027 9.96842 13.5916 9.21147 14.1293C8.45452 14.667 7.88361 15.4268 7.57788 16.3035" stroke="#006BFF" stroke-width="1.25" stroke-linecap="round" stroke-linejoin="round"/>
</svg>
