<svg fill="none" height="22" viewBox="0 0 175 22" width="175" xmlns="http://www.w3.org/2000/svg"><path d="m50.7659 6.53891v8.93749h2.2284c.5687-.0084 1.1299-.1309 1.6505-.36.5205-.2291.9899-.5604 1.3802-.9741.8011-.8481 1.2394-1.9755 1.2216-3.142.0169-.5794-.0807-1.1565-.2874-1.69806-.2068-.54155-.5184-1.03692-.9172-1.45765-.3919-.41428-.8645-.74395-1.3887-.96869-.5241-.22475-1.0887-.33982-1.659-.33813h-2.2273zm2.2284-2.80227c4.1534 0 7.2954 3.21818 7.2954 7.26366 0 4.0454-3.142 7.2818-7.2954 7.2818h-4.9148c-.0468-.0006-.0931-.0104-.1362-.0289s-.0821-.0453-.1148-.0788c-.0327-.0336-.0585-.0733-.0758-.1168-.0174-.0435-.0261-.09-.0255-.1369v-13.80793c0-.2.158-.3625.3523-.3625zm18.0011 12.05116c1.8864.0057 3.5898-1.1546 4.3159-2.9398.3557-.8722.4508-1.8289.2737-2.7541-.1771-.92521-.6187-1.77917-1.2714-2.4584-.6412-.66808-1.4701-1.12589-2.377-1.31296-.9069-.18706-1.8493-.09458-2.7025.26523-1.7432.73637-2.8819 2.47841-2.8853 4.41253 0 2.6363 2.0773 4.775 4.6478 4.7875zm.0012-12.38071c4.3715 0 7.7136 3.44546 7.7136 7.59321 0 4.1477-3.3421 7.5932-7.7148 7.5932-4.3716 0-7.6852-3.4285-7.6852-7.5932 0-4.1648 3.342-7.59321 7.6852-7.59321zm18.3329 12.38071c2.5716-.0068 4.6523-2.1478 4.65-4.7841-.0034-2.63865-2.0886-4.77502-4.6591-4.77615-2.5727 0-4.6591 2.13522-4.6625 4.77275 0 1.2704.4921 2.4886 1.3682 3.3863.4288.4425.942.7944 1.5092 1.0351.5672.2406 1.1769.3651 1.7931.3661zm-.0011-12.38071c4.3579 0 7.7 3.42841 7.7 7.59321 0 4.1647-3.3557 7.5932-7.7 7.5932-4.3432 0-7.7137-3.4285-7.7137-7.5932 0-4.1648 3.3421-7.59321 7.7137-7.59321zm17.8936 3.13182h-3.142v3.84659h3.142c.248.011.496-.029.728-.1175.232-.0886.444-.2238.622-.39727.363-.35227.57-.84091.575-1.35455.009-.26058-.035-.52033-.129-.76364-.093-.24331-.235-.46518-.417-.65227-.178-.18412-.393-.32888-.631-.42497-.237-.0961-.492-.14139-.748-.13298zm-6.182-2.42614c0-.2.159-.3625.353-.3625h5.916c2.821 0 4.861 2.11932 4.861 4.78069.022 1.80004-.961 3.45344-2.53 4.25904l2.728 4.9466c.038.0569.059.1231.062.1913.002.0682-.015.1357-.048.1951-.033.0584-.082.1062-.141.1376-.059.0315-.126.0452-.193.0397h-2.395c-.066.0009-.131-.0169-.188-.0515s-.103-.0845-.132-.144l-2.63-4.8954h-2.635v4.7c.001.0469-.008.0936-.025.1372-.017.0437-.043.0835-.076.1171-.032.0337-.072.0606-.115.0792-.043.0185-.089.0284-.136.029h-2.307c-.047-.0006-.093-.0105-.136-.029-.044-.0186-.083-.0455-.115-.0792-.033-.0336-.059-.0734-.076-.1171-.017-.0436-.026-.0903-.025-.1372l-.016-13.79549zm19.053 2.49432v8.93861h2.227c.569-.0077 1.13-.1293 1.651-.3577.521-.2283.99-.5588 1.381-.9718.802-.8472 1.241-1.9737 1.224-3.1398.018-.5801-.078-1.15811-.285-1.70068-.206-.54257-.517-1.03899-.916-1.46067-.393-.41499-.866-.74506-1.391-.96983s-1.091-.33946-1.662-.33699zm2.227-2.80568c4.154 0 7.296 3.22159 7.296 7.27499s-3.142 7.275-7.296 7.275h-4.9c-.047-.0006-.093-.0104-.136-.029-.043-.0185-.082-.0454-.115-.0791s-.058-.0735-.076-.1171c-.017-.0437-.026-.0903-.025-.1373v-13.80681c0-.20113.158-.36363.352-.36363l4.902-.01705zm16.564 3.55455-1.724 4.77954h3.445zm-2.735 7.48064-1.129 3.1819c-.022.0748-.069.14-.133.1853s-.141.068-.219.0647h-2.448c-.062.0058-.125-.0053-.181-.0321-.057-.0268-.105-.0683-.14-.1202-.036-.0525-.058-.1134-.063-.1767s.006-.1269.032-.1847l5.289-13.7943c.024-.07274.072-.13543.136-.17851.063-.04308.139-.06419.216-.06013h2.739c.077-.00432.153.01667.217.05977.063.0431.111.10593.136.17887l5.289 13.7943c.026.0579.037.1216.031.1849-.005.0633-.027.1241-.063.1765-.035.0517-.084.093-.14.1196-.057.0266-.119.0374-.182.0315h-2.446c-.078.0034-.155-.0194-.219-.0647-.064-.0452-.111-.1104-.134-.1853l-1.128-3.1818h-5.46zm12.578-7.17042c0-2.28409 1.925-4.25909 4.965-4.25909 1.637-.03655 3.222.57578 4.409 1.70341.036.0342.065.07542.085.12114.02.04573.03.09499.03.14477s-.01.09904-.03.14477c-.02.04572-.049.08694-.085.12114l-1.356 1.38068c-.032.03354-.071.06022-.114.07843-.043.01822-.089.02761-.136.02761-.046 0-.092-.00939-.135-.02761-.043-.01821-.082-.04489-.115-.07843-.638-.5985-1.477-.9376-2.352-.95114-1.216 0-2.115.72387-2.115 1.5591 0 2.70004 7.186 1.14204 7.186 6.33754-.004 2.6329-1.944 4.625-5.373 4.625-.952.0097-1.897-.1722-2.778-.5349-.88-.3627-1.679-.8989-2.348-1.5765-.036-.0342-.065-.0754-.085-.1212-.02-.0457-.03-.0949-.03-.1447s.01-.0991.03-.1448.049-.0869.085-.1211l1.311-1.3455c.033-.0352.072-.0632.116-.0824s.092-.0291.14-.0291.095.0099.139.0291.084.0472.116.0824c.826.8181 1.937 1.2827 3.099 1.2955 1.52 0 2.521-.8318 2.521-1.8739 0-2.7011-7.182-1.142-7.182-6.33863zm23.266-3.57159v5.45909h-6.082v-5.45909c.001-.04686-.008-.09338-.025-.1369s-.043-.08319-.076-.11675c-.033-.03355-.072-.06034-.115-.07882s-.089-.0283-.136-.02889h-2.307c-.047.00059-.093.01041-.136.02889s-.082.04527-.115.07882c-.032.03356-.058.07323-.076.11675-.017.04352-.026.09004-.025.1369v13.79201c0 .2.159.3625.352.3625h2.307c.193 0 .352-.1625.352-.3625v-5.5454h6.078v5.5454c0 .2.159.3625.352.3625h2.307c.194 0 .352-.1625.352-.3625v-13.79201c.001-.04686-.008-.09338-.025-.1369-.018-.04352-.044-.08319-.076-.11675-.033-.03355-.072-.06034-.115-.07882s-.089-.0283-.136-.02889h-2.307c-.094.00238-.183.04165-.248.10929s-.101.15821-.1.25207zm-137.2146 1.47955c-1.6-2.96591-4.7307-4.812502-8.1353-4.801139h-25.759044c-.173958.000706-.343862.052586-.488543.149175-.144681.096584-.257741.233614-.3250929.394004-.06636764.15937-.0836527.33491-.0496413.50416s.1177712.32449.2405502.44584l5.611361 5.56819c.49546.49318 1.17046.76931 1.87273.76931h18.15908c1.2943-.01363 2.3523 1.01137 2.3659 2.28752.0137 1.2761-1.0238 2.3216-2.3182 2.3341h-12.5193c-.1741 0-.3443.0514-.4894.1476s-.2586.233-.3265.3933c-.067.1595-.0847.3355-.0509.5052s.1176.3254.2407.4471l5.6148 5.5727c.4985.4929 1.1716.769 1.8727.7682h5.6625c7.367 0 12.9375-7.7728 8.8216-15.48867" fill="#ff3008"/></svg>