<svg width="62" height="45" viewBox="0 0 62 45" fill="none" xmlns="http://www.w3.org/2000/svg">
<path fill-rule="evenodd" clip-rule="evenodd" d="M0.161011 1.35227H9.5503V26.7827C9.5503 30.8072 11.3744 33.2045 12.8169 34.2322C11.2898 35.6021 6.62324 36.8009 3.14459 33.8895C1.09369 32.1734 0.161011 29.3515 0.161011 26.697V1.35227ZM58.8402 22.4768V19.8043H61.7038V10.4286H58.5591C57.3519 4.79957 52.3861 0.581543 46.4474 0.581543C39.6059 0.581543 34.0602 6.17869 34.0602 13.0827V34.978C36.0092 35.2544 38.3312 34.9436 40.3069 33.2903C42.3574 31.5739 43.2901 28.7523 43.2901 26.0978V25.2911H47.9795V15.9153H43.2901V13.0827H43.3014C43.3014 11.3294 44.7098 9.90812 46.4474 9.90812C48.1847 9.90812 49.5987 11.3294 49.5987 13.0827V22.4768C49.5987 29.3808 55.1504 34.978 61.9915 34.978V25.6514C60.2542 25.6514 58.8402 24.23 58.8402 22.4768ZM23.2797 10.4286V24.1884C23.2797 24.9696 22.6375 25.6029 21.845 25.6029C21.0526 25.6029 20.4104 24.9696 20.4104 24.1884V10.4286H11.1198V26.6116C11.1198 29.5227 12.0981 33.2045 16.5501 34.4033C21.0067 35.6034 23.592 33.1191 23.592 33.1191C23.3565 34.7557 21.8291 35.9546 19.3687 36.2115C17.5071 36.4056 15.1264 35.7834 13.9388 35.2696V43.8434C16.9649 44.744 20.1655 45.0349 23.2978 44.4215C28.9823 43.3085 32.5699 38.5136 32.5699 32.1343V10.4286H23.2797Z" fill="#FF0590"/>
</svg>
